<?xml version="1.0" encoding="UTF-8"?>
<svg xmlns="http://www.w3.org/2000/svg" viewBox="0 0 15 15">
<defs>
	<style>
		.d {
			fill:#000000;
		}
	</style>
</defs>
<path class="d" stroke-width="0" d="M13.9658203,6.7272949l-3.2069092,2.3900757s1.0172119-.03479,1.6234741,0c0,2.4342041-1.6234741,3.2457275-3.2468872,3.2457275-.4575806-1.352417-.6567383-2.704834-.7471313-4.0571899h.7351074v-.8114014h.8117065v-.8114014h-1.6129761c-.0053711-.3203125-.0083008-.640625-.0092163-.9609375.9429932-.3356323,1.6221924-1.2268066,1.6221924-2.284668,0-1.3444214-1.09021-2.4343262-2.4350586-2.4343262-1.3450317,0-2.4351196,1.0899048-2.4351196,2.4343262,0,1.0612183.6835327,1.9544678,1.6313477,2.2875366-.0021362.3193359-.0062256.6386719-.0124512.9580688h-1.6188965v.8114014h.8117065v.8114014h.7384644c-.0911255,1.352417-.2874756,2.7054443-.7384644,4.0592041-1.6235352,0-3.2468262-.8114014-3.2468262-3.2457275.6062012-.0346069,1.623291,0,1.623291,0l-3.2067871-2.3900146s-.039917,1.5098877-.039917,2.3900146c0,3.2457275,2.4350586,4.8685913,6.4971313,4.866394l.0084839-.0001831v-.0018921c4.0598145.0010986,6.4937134-1.6216431,6.4937134-4.866333,0-.880188-.039978-2.3900757-.039978-2.3900757ZM7.5001221,2.3825684c.5827637,0,1.0551758.47229,1.0551758,1.0549316,0,.5824585-.4724121,1.0548096-1.0551758,1.0548096-.5828247,0-1.0552368-.4723511-1.0552368-1.0548096,0-.5826416.4724121-1.0549316,1.0552368-1.0549316Z"/>
</svg>