<?xml version="1.0" encoding="UTF-8"?>
<svg xmlns="http://www.w3.org/2000/svg" viewBox="0 0 15 15">
<defs>
	<style>
		.d {
			fill:#000000;
		}
		.c {
			fill:#000000;
			opacity: .6;
		}
	</style>
</defs>
<path class="d" stroke-width="0" d="M3.5957031,11.4055786l.0114136.0103149c.1021729.0858154.2971802.0991821.4077759.0991821.934082,0,2.8134155-.8718872,4.7327881-2.7857056,2.428894-2.4219971,3.1152344-4.7025757,2.6791382-5.1373901l-.0234985-.0233765c-1.0004272-.9859009-2.3748169-1.5958252-3.8927002-1.5958252C4.4511108,1.9727783,1.9707031,4.446106,1.9707031,7.4970703c0,1.5245361.6193237,2.904541,1.6206055,3.9042358l.0043945.0042725ZM7.5783081,13.0181885c3.0101929-.036377,5.4407959-2.4642944,5.4696045-5.4678955-.6810303,1.0128784-1.5198975,2.031311-2.4827881,2.9915161-.9743042.9714966-1.9888306,1.8064575-2.9868164,2.4763794Z"/>
<path class="c" stroke-width="0" d="M13.5374756,1.4876099c-.6976929-.6956177-2.0459595-.6036377-3.6425781.0982666.805481.3234253,1.5317993.8016968,2.1356812,1.4039307l-.0012817.0012817.0001831.0001831c1.0159912,1.0131226-.1842041,3.8510132-2.6791992,6.3389893-2.4978027,2.4907227-5.343689,3.6877441-6.3595581,2.6746216l-.0031128-.0039062c-.6022949-.6013794-1.0809326-1.3242798-1.4047852-2.1260986-.7034302,1.5917358-.7949219,2.9354248-.097229,3.6309814,1.3533936,1.3496094,5.1467285-.2440796,8.4769287-3.5650635,3.3275757-3.3181152,4.9284668-7.1033936,3.5749512-8.453186Z"/>
</svg>