<?xml version="1.0" encoding="UTF-8"?>
<svg xmlns="http://www.w3.org/2000/svg" viewBox="0 0 15 15">
<defs>
	<style>
		.d {
			fill:#000000;
		}
	</style>
</defs>
<path class="d" stroke-width="0" d="M13.6497803,11.9296875c-.2449951-.4202881-2.6322021-1.3120728-3.0888062-1.7312012-.456604-.4191895-.7410889-1.0498047-.7410889-1.0498047h-.4561157s-.0238647-.2521973-.0083618-.4191895c.0147705-.1665039.6218872-.1309814.6494141-.7097778.0288086-.5792236.0747681-.7906494.0747681-.7906494,0,0,.2081909-.0230713.2655029-.2423096.0552368-.2191772.1401978-1.3389893.1470337-1.4550781.0074463-.1162109-.1607056-.0996704-.1607056-.0996704,0,0,.2807617-1.2197266.1773682-2.1595459-.0177002-.1656494-.071167-.3349609-.1408691-.5029907-.0292358-.1799927-.0700073-.3499756-.1346436-.4533691-.2652588-.5237427-.2704468-.1860352-.6103516-.6060181-.3807373-.3845825-.2643433-.5484009-1.1000977-.7230225-.3780518-.0348511-.7984009.0704346-1.1774292.1408081-.5692749.1050415-1.671875.2092285-2.0894775.6282959l-.0756226-.1044922c-.1151733.2106934-.1904907.4890137-.3793945.6986084-.0770874-.0341797-.1152954-.0341797-.1546021-.0690918-.2001953.2879028-.2030029.6483154-.1566162,1.0100708-.0987549.9375.1777954,2.1407471.1777954,2.1407471,0,0-.1688843-.0165405-.1616821.0996704.0079956.1160889.0936279,1.2359009.1478271,1.4550781.0570679.2192383.2660522.2423096.2660522.2423096,0,0,.0461426.2114258.0749512.7906494.0287476.5787964.633667.5432739.6481934.7097778.0166626.1669922-.0073242.4191895-.0073242.4191895h-.4552002s-.2849731.6306152-.7418213,1.0498047c-.4563599.4191284-2.8442993,1.3109131-3.088501,1.7312012-.2467651.4194946-.3435669,2.0640259-.3435669,2.0640259l12.9873657-.0078125s-.098877-1.6367188-.3439941-2.0562134Z"/>
</svg>