<svg id="Artwork" xmlns="http://www.w3.org/2000/svg" viewBox="0 0 18 18"><defs><style>.White{fill:#fff;}.cls-1{fill:#f2f1ee;}.cls-2{fill:#fc4c4c;}</style></defs><title>weather-wind-day</title><path class="White" d="M6,3.12677v9.27277a21.98974,21.98974,0,0,0,3-1.3794V3.589A21.565,21.565,0,0,1,6,3.12677Z"/><path class="White" d="M12,9.5202a10.16115,10.16115,0,0,1,3-.79944V5.05054a11.09955,11.09955,0,0,0-3-1.07581Z"/><path class="cls-1" d="M2.62054,9.49225,2,9.134V6.866l.52625-.30384c.02319-.41626.0617-.82452.11486-1.221L2,5.7113V2.5a.5.5,0,0,0-1,0v13a.5.5,0,0,0,1,0V10.28864l.83643.48291C2.74738,10.3623,2.67505,9.93408,2.62054,9.49225Z"/><path class="cls-2" d="M17.2829,5.929C12.12732,2.01819,9.14642,4.01428,4.13849,2.01038A12.07059,12.07059,0,0,0,3,7.5a11.33849,11.33849,0,0,0,1.35431,5.853c4.50281-.7934,7.40082-4.36145,11.7868-4.15668A1.75829,1.75829,0,0,0,18,7.45111V7.34668A1.78646,1.78646,0,0,0,17.2829,5.929ZM9,10.45416A24.07736,24.07736,0,0,1,6,11.868V3.64081a22.64082,22.64082,0,0,0,3,.45007Zm6-2.23089a10.48992,10.48992,0,0,0-3,.75927V4.48273a10.4947,10.4947,0,0,1,3,1.13409Z"/></svg>