<?xml version="1.0" encoding="UTF-8"?>
<svg id="a" data-name="Artwork" xmlns="http://www.w3.org/2000/svg" viewBox="0 0 18 18">
  <defs>
    <style>
      .b {
        stroke-width: 0px;
	fill:#000000;
      }
    </style>
  </defs>
  <path class="b" d="m2.6205444,9.4922485l-.6205444-.3582764v-2.2680054l.5262451-.303833c.0231934-.4162598.0617065-.8245239.1148682-1.2210083l-.6411133.3701782v-3.2113037c0-.2750244-.2249756-.5-.5-.5-.2749634,0-.5.2249756-.5.5v13c0,.2749634.2250366.5.5.5.2750244,0,.5-.2250366.5-.5v-5.2113647l.8364258.4829102c-.0890503-.4092407-.161377-.8374634-.2158813-1.2792969Z"/>
  <path class="b" d="m17.2828979,5.9290161c-5.1555786-3.9108276-8.1364746-1.9147339-13.1444092-3.9186401-.6934814,1.2821045-1.1384888,3.2645264-1.1384888,5.489624,0,2.4478149.5386963,4.6018066,1.3543091,5.8529663,4.5028076-.793396,7.4008179-4.3614502,11.7868042-4.1566772,1.0078125.0469971,1.8588867-.7362061,1.8588867-1.7451782v-.1044312c0-.5584717-.2720947-1.0802002-.7171021-1.4176636Zm-8.2828979,4.5251465c-.9638062.5133667-1.9504395,1.0286255-3,1.4138794V3.6408081c1.0637207.246582,2.0445557.3567505,3,.4500732v6.3632812Zm6-2.230896c-1.0706177.0957642-2.0594482.3808594-3,.7592773v-4.4998169c.9560547.2050781,1.9293823.5355225,3,1.1340942v2.6064453Z"/>
</svg>