<?xml version="1.0" encoding="UTF-8"?>
<svg id="a" data-name="Artwork" xmlns="http://www.w3.org/2000/svg" viewBox="0 0 18 18">
  <defs>
    <style>
      .b {
        stroke-width: 0px;
	fill:#000000;
      }
    </style>
  </defs>
  <path class="b" d="m9,2.5c.2675171,0,.531189.0165405.7902222.0479126l-.1017456-.930603c-.0899658-.8231201-1.2869263-.8231201-1.3769531,0l-.1017456.930603c.2590332-.0313721.5227051-.0479126.7902222-.0479126Z"/>
  <path class="b" d="m5.0897217,3.8076172c.4193726-.3162842.8781738-.5830688,1.3678589-.7914429l-.5526733-.7540283c-.4894409-.6677856-1.526062-.0693359-1.1924438.6884766l.3772583.8569946Z"/>
  <path class="b" d="m2.262207,5.9048462l.7540283.5526733c.208313-.4896851.4750366-.9484863.7913818-1.3678589l-.8569946-.3772583c-.7577515-.3336182-1.3562622.7030029-.6884155,1.1924438Z"/>
  <path class="b" d="m12.9103394,3.8076172l.3772583-.8569946c.3336182-.7578125-.7030029-1.3562622-1.1924438-.6884766l-.5527344.7540894c.4896851.208313.9485474.4750366,1.3679199.7913818Z"/>
  <path class="b" d="m2.5,9c0-.2675171.0165405-.531189.0479126-.7902222l-.930603.1017456c-.8230591.0899658-.8230591,1.2869263,0,1.3769531l.930603.1017456c-.0313721-.2590332-.0479126-.5227051-.0479126-.7902222Z"/>
  <path class="b" d="m14.9837646,6.4575806l.7540894-.5527344c.6677856-.4894409.0693359-1.526062-.6884766-1.1924438l-.8569946.3772583c.3163452.4193726.5830688.8782349.7913818,1.3679199Z"/>
  <path class="b" d="m16.3826904,8.3115234l-.930603-.1017456c.0313721.2590332.0479126.5227051.0479126.7902222s-.0165405.531189-.0479126.7902222l.930603-.1017456c.8231201-.0900269.8231201-1.2869873,0-1.3769531Z"/>
  <path class="b" d="m12.9103394,14.1923828c-.4193726.3163452-.8781738.5830688-1.3678589.7913818l.5526733.7540283c.4894409.6678467,1.526062.0693359,1.1924438-.6884155l-.3772583-.8569946Z"/>
  <path class="b" d="m15.737854,12.0950928l-.7540283-.5526733c-.208374.4896851-.4751587.9484863-.7914429,1.3678589l.8569946.3772583c.7578125.3336182,1.3562622-.7030029.6884766-1.1924438Z"/>
  <path class="b" d="m3.0162354,11.5424194l-.7540283.5526733c-.6678467.4894409-.0693359,1.526062.6884155,1.1924438l.8569946-.3772583c-.3162842-.4193726-.5830688-.8781738-.7913818-1.3678589Z"/>
  <path class="b" d="m9,15.5c-.2675171,0-.531189-.0165405-.7902222-.0479126l.1017456.930603c.0900269.8230591,1.2869873.8230591,1.3769531,0l.1017456-.930603c-.2590332.0313721-.5227051.0479126-.7902222.0479126Z"/>
  <path class="b" d="m5.0897217,14.1923828l-.3772583.8569946c-.3336182.7577515.7030029,1.3562622,1.1924438.6884155l.5526733-.7540283c-.4896851-.208313-.9484863-.4750977-1.3678589-.7913818Z"/>
  <path class="b" d="m9,3c-3.3137207,0-6,2.6862793-6,6s2.6862793,6,6,6,6-2.6862793,6-6-2.6862793-6-6-6Zm-.0181885,10.293457c-.3831787,0-.7025757-.319458-.7025757-.7026367s.319397-.7025757.7025757-.7025757.7026367.319397.7026367.7025757-.319458.7026367-.7026367.7026367Zm.1659546-3.4492798c0,.2044067.1278687.460083.3450928.6263428l-.7791748.3319092c-.3450928-.2937622-.49823-.6513062-.49823-1.0344849,0-1.6228027,2.3122559-1.7634888,2.3122559-3.1174316,0-.638855-.4981689-1.1883545-1.5074463-1.1883545-.958252,0-1.5586548.4219971-2.03125,1.0477295l-.638855-.6901855c.6132202-.7919922,1.5583496-1.3026733,2.7723389-1.3026733,1.5583496,0,2.5038452.8814087,2.5038452,1.9803467,0,1.9290771-2.4785767,2.0946655-2.4785767,3.3468018Z"/>
</svg>