<?xml version="1.0" encoding="UTF-8"?>
<svg id="a" data-name="Artwork" xmlns="http://www.w3.org/2000/svg" viewBox="0 0 18 18">
  <defs>
    <style>
      .b {
        stroke-width: 0px;
	fill:#000000;
      }
    </style>
  </defs>
  <path class="b" d="m16.9533691.6809692c-7.4475098-.0581055-13.1727905,3.310791-13.5319824,7.9122925-.0780029.9984131.4105225,2.5534058.8591919,3.4533081,1.1577148,2.3218994-1.1439819,3.7476196-3.3057861,4.6480103-.3583374.149231-.2537842.6838989.1343994.6870117,7.4473877.0581055,13.1724854-3.3109131,13.5317993-7.9124146.0780029-.998291-.4104004-2.5534058-.8591919-3.4533081-1.1577148-2.3217773,1.1439819-3.7474976,3.3059082-4.6478882.3583984-.149292.2537842-.684021-.1343384-.6870117Zm-7.9533691,10.0065308c-.9664917,0-1.75-.7835083-1.75-1.75s.7835083-1.75,1.75-1.75,1.7498779.7835083,1.7498779,1.75-.7833862,1.75-1.7498779,1.75Z"/>
</svg>