<?xml version="1.0" encoding="UTF-8"?>
<svg id="a" data-name="Artwork" xmlns="http://www.w3.org/2000/svg" xmlns:xlink="http://www.w3.org/1999/xlink" viewBox="0 0 18 18">
  <defs>
    <style>
      .c, .d {
        stroke-width: 0px;
	fill:#000000;
      }

      .d {
        fill: url(#b);
      }
    </style>
    <linearGradient id="b" x1="8.0775757" y1="6.1873779" x2="18.000061" y2="6.1873779" gradientUnits="userSpaceOnUse">
      <stop offset="0" stop-color="#000" stop-opacity=".3"/>
      <stop offset="1" stop-color="#000" stop-opacity=".8"/>
    </linearGradient>
  </defs>
  <path class="c" d="m15,11c-.2433472,0-.4766235.0368652-.703125.0916138-.550293-.661499-1.3692017-1.0916138-2.296936-1.0916138-.3817139,0-.7437744.0783691-1.0797729.2084961-.3674927-1.829834-1.9822388-3.2084961-3.920166-3.2084961-2.2091064,0-4,1.7907715-4,4-1.6569214,0-3,1.3430786-3,3,0,1.1046143.8953857,2,2,2h14c1.1045532,0,2-.8953857,2-2,0-1.6569214-1.3431396-3-3-3Z"/>
  <path class="d" d="m11.5917969,9.0219727c1.1137695-.1220703,2.2246094.2529297,3.0551758.9960938.1196289-.012207.2373047-.0180664.3530273-.0180664.6033325,0,1.1757812.1345215,1.689209.3747559.8140869-.8894043,1.3108521-2.0740356,1.3108521-3.3747559,0-2.7614136-2.2385864-5-5-5-2.4606323,0-4.5060425,1.7774658-4.9224854,4.1185303,1.5632935.347229,2.8789673,1.4329834,3.5142212,2.9034424Z"/>
</svg>