<?xml version="1.0" encoding="UTF-8"?>
<svg id="a" data-name="Artwork" xmlns="http://www.w3.org/2000/svg" viewBox="0 0 18 18">
  <defs>
    <style>
      .b {
        stroke-width: 0px;
	fill:#000000;
      }
    </style>
  </defs>
  <path class="b" d="m6.3164063,3.4487305c.7216797-.2407227,1.3457031-.4487305,2.6835938-.4487305s1.9619141.2080078,2.6835938.4487305c.7753906.2583008,1.6542969.5512695,3.3164062.5512695.0771484,0,.1520996-.0090332.2241211-.0255127-1.4665527-1.8140869-3.7097168-2.9744873-6.2241211-2.9744873s-4.7575684,1.1604004-6.2241211,2.9744873c.0720215.0164795.1469727.0255127.2241211.0255127,1.6621094,0,2.5410156-.2929688,3.3164062-.5512695Z"/>
  <path class="b" d="m7.7763672,6.7050781c.7333984-.2441406,1.3652344-.4550781,2.7236328-.4550781s1.9902344.2109375,2.7236328.4550781c.765625.2553711,1.6347656.5449219,3.2763672.5449219.1040039,0,.2037354-.0182495.2962646-.0515137-.137085-.5957031-.3409424-1.1658325-.6029053-1.7024536-1.151123-.029541-1.7412109-.2261353-2.4169922-.4511108-.765625-.2553711-1.6347656-.5449219-3.2763672-.5449219s-2.5107422.2895508-3.2763672.5449219c-.7333984.2441406-1.3652344.4550781-2.7236328.4550781-1.217041,0-1.8508301-.1693115-2.4970703-.380188-.2824707.5082397-.5109863,1.050354-.6782227,1.6188965.7419434.24646,1.6053467.5112915,3.175293.5112915,1.6416016,0,2.5107422-.2895508,3.2763672-.5449219Z"/>
  <path class="b" d="m6,10.5c1.6220703,0,2.4433594-.2739258,3.2373047-.5385742.7119141-.2373047,1.3847656-.4614258,2.7626953-.4614258s2.0507812.2241211,2.7626953.4614258c.5843506.1947632,1.18396.3944702,2.1063232.4863892.0858154-.4696045.1309814-.9534302.1309814-1.4478149,0-.0158081-.0004883-.0315552-.0006104-.0473633-.7537842-.078186-1.2479248-.2426758-1.762085-.4140625-.7939453-.2646484-1.6152344-.5385742-3.2373047-.5385742s-2.4433594.2739258-3.2373047.5385742c-.7119141.2373047-1.3847656.4614258-2.7626953.4614258s-2.0507812-.2241211-2.7626953-.4614258c-.5998535-.1999512-1.2155762-.4051514-2.1804199-.4935303-.0371094.3131714-.0568848.6317749-.0568848.9549561,0,.1846924.0068359.3677368.019043.5492554.7435303.0789185,1.2336426.2421875,1.7436523.4121704.7939453.2646484,1.6152344.5385742,3.2373047.5385742Z"/>
  <path class="b" d="m7.5,13.75c1.6015625,0,2.4130859-.2705078,3.1972656-.5322266.7226562-.2407227,1.4042969-.4677734,2.8027344-.4677734,1.1274414,0,1.7889404.147583,2.3815918.3309326.2143555-.3607788.4016113-.739502.5578613-1.1339722-.7121582-.2319946-1.5119629-.4469604-2.9394531-.4469604-1.6015625,0-2.4130859.2705078-3.1972656.5322266-.7226562.2407227-1.4042969.4677734-2.8027344.4677734s-2.0800781-.2270508-2.8027344-.4677734c-.7841797-.2617188-1.5957031-.5322266-3.1972656-.5322266-.0341797,0-.0673828.0003052-.1008301.0005493.1437988.4370728.3239746.8574219.5373535,1.2575684,1.1120605.0421753,1.7231445.2454224,2.3662109.4596558.7841797.2617188,1.5957031.5322266,3.1972656.5322266Z"/>
  <path class="b" d="m11.8417969,15.5258789c-.7314453.2436523-1.4228516.4741211-2.8417969.4741211s-2.1103516-.2304688-2.8417969-.4741211c-.6452637-.215332-1.3092041-.4362793-2.4249268-.5044556,1.4071045,1.2318115,3.2496338,1.9785767,5.2667236,1.9785767s3.8596191-.7467651,5.2667236-1.9785767c-1.1157227.0681763-1.7796631.2891235-2.4249268.5044556Z"/>
</svg>