<svg id="Artwork" xmlns="http://www.w3.org/2000/svg" xmlns:xlink="http://www.w3.org/1999/xlink" viewBox="0 0 18 18"><defs><style>.cls-1{fill:url(#linear-gradient);}.cls-2{fill:#f2f1ee;}</style><linearGradient id="linear-gradient" x1="3" y1="8" x2="15" y2="8" gradientUnits="userSpaceOnUse"><stop offset="0" stop-color="#595959"/><stop offset="1" stop-color="#b3b3b3"/></linearGradient></defs><title>weather-partlycloudy-night</title><circle class="cls-1" cx="9" cy="8" r="6"/><path class="cls-2" d="M9.99872,14.94818a3.00057,3.00057,0,0,0-2.00635-2.77942C7.997,12.1131,8,12.05688,8,12a2.00024,2.00024,0,0,0-3.7995-.8736,2.0009,2.0009,0,0,0-2.58874,1.2143A2.99907,2.99907,0,0,0,.00122,14.94818C.00037,14.96527,0,14.9826,0,15a1.00008,1.00008,0,0,0,1,1H9a1.00008,1.00008,0,0,0,1-1C10,14.9826,9.99957,14.96527,9.99872,14.94818Z"/><path class="cls-2" d="M17.99866,9.94788a1.99934,1.99934,0,0,0-1.74933-1.93177,2.99782,2.99782,0,0,0-4.49878,0,1.99944,1.99944,0,0,0-1.74927,1.93177C10.00043,9.96521,10,9.98248,10,10a1.00012,1.00012,0,0,0,1,1h5.99994A1.0001,1.0001,0,0,0,18,10C18,9.98248,17.99957,9.96521,17.99866,9.94788Z"/></svg>