<?xml version="1.0" encoding="UTF-8"?>
<svg id="a" data-name="Artwork" xmlns="http://www.w3.org/2000/svg" viewBox="0 0 18 18">
  <defs>
    <style>
      .b {
        stroke-width: 0px;
	fill:#000000;
      }
    </style>
  </defs>
  <path class="b" d="m15.897583,12.4606934l-.574585-.3751831c.2821045-.0864868.4680786-.3303833.637207-.614502.0271606-.0454712.0084839-.1046143-.0401001-.1254883-.3389282-.1467896-.7244873-.1483154-1.0665283-.0012207l-.0218506.0095215c-.2977295.1281128-.6502075.0582886-.8786011-.1940308l1.1466675-.4932861c.2998657-.1289673.5454102-.3580933.6959839-.6472778.0236206-.0454102.0040894-.1011963-.0426025-.1217041-.3406982-.1497192-.7288818-.1520996-1.0731201-.0040894l-.9178467.3860474c-.4559937.1918335-.9765015.1448364-1.3912964-.1255493l-.9216919-.600708c-.1992188-.1298828-.2988281-.3416138-.2988281-.5532837,0-.211731.0996094-.4234009.2988281-.5533447l.9216919-.600708c.4147949-.2703857.9353027-.3173828,1.3912964-.1255493l.9178467.3859863c.3442383.1480713.7324219.1455688,1.0731201-.0040283.0466919-.0205078.0662231-.0762939.0426025-.1217041-.1505737-.2891846-.3961182-.5183716-.6959839-.6473999l-1.1466675-.4932861c.2283936-.2521973.5808716-.3220215.8786011-.1939697l.0218506.0094604c.342041.1470947.7276001.1456299,1.0665283-.0010986.048584-.0209961.0672607-.0800171.0401001-.1256104-.1691284-.2839966-.3551025-.5279541-.637207-.6143799l.574585-.3753052c.3634033-.2373047.6549072-.569519.8441162-.9602051.026062-.0537109-.0100098-.1165161-.0690918-.1206055-.430603-.0302734-.8621216.0578003-1.2478027.2561035l-.6100464.3135376c.0668335-.2892456-.0499878-.5734253-.2096558-.8630371-.0256348-.0463867-.0856934-.0595703-.1279297-.027771-.2957764.22229-.4898682.5578003-.5343018.9295654l-.0028076.0240479c-.0387573.3234863-.2750854.5960693-.6060791.6691895l.1491089-1.2468262c.0390015-.3261108-.0354004-.6546631-.2087402-.930603-.0273438-.043396-.0848999-.0542603-.1260376-.0238037-.2988281.22229-.4951172.5596924-.539917.934021l-.1268921.9935913c-.0631104.4935303-.3638306.9240112-.8037109,1.1506958l-.9772949.503418c-.2114258.1088867-.4432983.0899048-.6253052-.0159912-.1820679-.105835-.31427-.2985229-.326416-.5372925l-.0557861-1.104126c-.0250854-.4970703.1947632-.9744873.5877075-1.2763062l.7908936-.607605c.2993774-.2260742.4915161-.565979.5332031-.9379883.0056763-.0510254-.0325317-.0958252-.0834351-.0979004-.3239746-.0133057-.6436768.0861816-.9046631.2833252l-.9974365.753479c-.1027832-.3253784.0134277-.6677246.2723999-.8632812l.019104-.0144043c.2975464-.2247314.4888916-.5617065.5322876-.9308472.0062256-.0527954-.0351562-.0986938-.0879517-.0976562-.3289185.0054932-.6315918.0457764-.8469849.2485962l-.0353394-.6887817c-.0223999-.4356079-.1624146-.8560181-.4036865-1.2164307-.0330811-.0494995-.1051025-.0494995-.1383057,0-.241394.3604126-.3812256.7808228-.4035645,1.2164307l-.0354614.6887817c-.215332-.2028198-.5180664-.243103-.8469849-.2485962-.0527954-.0010376-.0939941.0448608-.0877686.0976562.0432129.3691406.2346191.7061157.5321045.9308472l.019104.0144043c.2590942.1955566.3752441.5379028.272583.8632812l-.9976196-.753479c-.2608643-.1971436-.5805054-.2966309-.90448-.2833252-.0510864.0020752-.0891724.046875-.0836182.0979004.0419312.3720093.2338257.7119141.5332031.9379883l.7908936.607605c.3928833.3018188.612793.7792358.5875854,1.2763062l-.0556641,1.104126c-.0120239.2387695-.1442261.4314575-.326416.5372925-.1820068.105896-.4138794.1248779-.6251221.0159912l-.977356-.503418c-.4398804-.2266846-.7406006-.6571655-.8037109-1.1506958l-.1268921-.9935913c-.0447998-.3743286-.2410278-.711731-.5400391-.934021-.0410767-.0304565-.0987549-.0195923-.1260376.0238037-.1733398.2759399-.2477417.6044922-.2087402.930603l.149292,1.2468262c-.3310547-.0731201-.5675049-.3457031-.6060791-.6691895l-.0029297-.0240479c-.0444946-.3717651-.2384033-.7072754-.5341797-.9295654-.0421753-.0317993-.102478-.0186157-.1281128.027771-.159668.2896118-.2763672.5737915-.2096558.8630371l-.6099243-.3135376c-.3858032-.1983032-.8173218-.286377-1.2479248-.2561035-.059082.0040894-.0950928.0668945-.0690918.1206055.189209.390686.480835.7229004.8441772.9602051l.574646.3753052c-.2821045.0864258-.4682007.3303833-.6373291.6143799-.0270996.0455933-.0083618.1046143.0401001.1256104.3389282.1467285.7244873.1481934,1.0665283.0010986l.0219727-.0094604c.2976074-.1280518.6500854-.0582275.8786011.1939697l-1.1467896.4932861c-.2998047.1290283-.5452271.3582153-.6958008.6473999-.0238037.0454102-.0042114.1011963.0424194.1217041.3406982.1495972.7290649.1520996,1.0731812.0040283l.9177856-.3859863c.4559937-.1918335.9765015-.1448364,1.3914185.1255493l.9215698.600708c.1992188.1299438.2989502.3416138.2989502.5533447,0,.2116699-.0997314.4234009-.2989502.5532837l-.9215698.600708c-.414917.2703857-.9354248.3173828-1.3914185.1255493l-.9177856-.3860474c-.3441162-.1480103-.7324829-.1456299-1.0731812.0040894-.0466309.0205078-.0662231.0762939-.0424194.1217041.1505737.2891846.3959961.5183105.6958008.6472778l1.1467896.4932861c-.2285156.2523193-.5809937.3221436-.8786011.1940308l-.0219727-.0095215c-.342041-.1470947-.7276001-.1455688-1.0665283.0012207-.0484619.020874-.0671997.0800171-.0401001.1254883.1691284.2841187.3552246.5280151.6373291.614502l-.574646.3751831c-.3633423.2373047-.6549683.569519-.8441772.9603271-.026001.0537109.0100098.116394.0690918.1206055.430603.0302734.8621216-.0579224,1.2479248-.2562256l.6099243-.3134766c-.0667114.2891846.0499878.5734863.2096558.8629761.0256348.0465088.0859375.0596313.1281128.027832.2957764-.2223511.4896851-.5578003.5341797-.9296265l.0029297-.0239258c.0385742-.3235474.2750244-.5961914.6060791-.6692505l-.149292,1.2468872c-.0390015.3259888.0354004.6546021.2087402.930481.0272827.043396.0849609.0543213.1260376.0239258.2990112-.22229.4952393-.5598145.5400391-.934021l.1268921-.9935913c.0631104-.4935913.3638306-.9240723.8037109-1.1506958l.977356-.503479c.2112427-.1088257.4431152-.0898438.6251221.0159912.1821899.105896.3143921.298584.326416.5372925l.0556641,1.104187c.0252075.4970093-.1947021.9744873-.5875854,1.2763062l-.7908936.6074829c-.2993774.2261963-.491272.5661011-.5332031.9379883-.0055542.0510254.0325317.0959473.0836182.0980225.3239746.0133057.6436157-.0861816.90448-.2833252l.9976196-.753479c.1026611.3253174-.0134888.6677246-.272583.8632202l-.019104.0144653c-.2974854.2247314-.4888916.5617065-.5321045.9307251-.0062256.0527954.0349731.0986938.0877686.0977783.3289185-.0054932.6316528-.0457764.8469849-.2485962l.0354614.6887207c.0223389.4356689.1621704.8560791.4035645,1.2163696.0332031.0496216.1052246.0496216.1383057,0,.241272-.3602905.3812866-.7807007.4036865-1.2163696l.0353394-.6887207c.2153931.2028198.5180664.243103.8469849.2485962.0527954.0009155.0941772-.0449829.0879517-.0977783-.043396-.3690186-.2347412-.7059937-.5322876-.9307251l-.019104-.0144653c-.2589722-.1954956-.3751831-.5379028-.2723999-.8632202l.9974365.753479c.2609863.1971436.5806885.2966309.9046631.2833252.0509033-.0020752.0891113-.0469971.0834351-.0980225-.041687-.3718872-.2338257-.711792-.5332031-.9379883l-.7908936-.6074829c-.3929443-.3018188-.612793-.7792969-.5877075-1.2763062l.0557861-1.104187c.012146-.2387085.1443481-.4313965.326416-.5372925.1820068-.105835.4138794-.1248169.6253052-.0159912l.9772949.503479c.4398804.2266235.7406006.6571045.8037109,1.1506958l.1268921.9935913c.0447998.3742065.2410889.711731.539917.934021.0411377.0303955.0986938.0194702.1260376-.0239258.1733398-.2758789.2477417-.6044922.2087402-.930481l-.1491089-1.2468872c.3309937.0730591.5673218.3457031.6060791.6692505l.0028076.0239258c.0444336.3718262.2385254.7072754.5343018.9296265.0422363.0317993.1022949.0186768.1279297-.027832.159668-.2894897.2764893-.5737915.2096558-.8629761l.6100464.3134766c.3856812.1983032.8171997.286499,1.2478027.2562256.059082-.0042114.0951538-.0668945.0690918-.1206055-.189209-.3908081-.4807129-.7230225-.8441162-.9603271Z"/>
</svg>