<svg id="Artwork" xmlns="http://www.w3.org/2000/svg" viewBox="0 0 18 18"><defs><style>.cls-1{fill:#36fff3;}.cls-2{fill:#c8cbcc;}.cls-3{fill:#f8d55f;}</style></defs><title>weather-hail-day</title><rect class="cls-1" x="8.59082" y="9" width="0.81836" height="6"/><circle class="cls-2" cx="9" cy="17" r="1"/><path class="cls-1" d="M5.83887,16.03955a4.305,4.305,0,0,0-1.72315-2.125,2.959,2.959,0,0,0-1.17779-.3866A1.98749,1.98749,0,0,1,3,14a2.0005,2.0005,0,0,1-.03619.35858,2.1454,2.1454,0,0,1,.75592.27228A4.91819,4.91819,0,0,1,5.58014,18h.83234l1.141-9h-.825Z"/><path class="cls-1" d="M12.16113,16.03955a4.305,4.305,0,0,1,1.72315-2.125,2.959,2.959,0,0,1,1.17779-.3866,1.81236,1.81236,0,0,0-.02588.83063,2.1454,2.1454,0,0,0-.75592.27228A4.91819,4.91819,0,0,0,12.41986,18h-.83234l-1.141-9h.825Z"/><circle class="cls-3" cx="13" cy="5" r="5"/><path class="cls-2" d="M15,7a2.97867,2.97867,0,0,0-.70312.09161,2.94443,2.94443,0,0,0-3.37671-.88311A3.99959,3.99959,0,0,0,3,7a2.99992,2.99992,0,0,0-3,3,2,2,0,0,0,2,2H16a2,2,0,0,0,2-2A3,3,0,0,0,15,7Z"/><circle class="cls-2" cx="1" cy="14" r="1"/><circle class="cls-2" cx="17" cy="14" r="1"/></svg>