<svg id="Artwork" xmlns="http://www.w3.org/2000/svg" xmlns:xlink="http://www.w3.org/1999/xlink" viewBox="0 0 18 18"><defs><style>.cls-1{fill:url(#linear-gradient);}.White{fill:#fff;}</style><linearGradient id="linear-gradient" x1="1" y1="9" x2="17" y2="9" gradientUnits="userSpaceOnUse"><stop offset="0" stop-color="#595959"/><stop offset="1" stop-color="#b3b3b3"/></linearGradient></defs><title>weather-unknown-night</title><path class="cls-1" d="M9,1a8,8,0,1,0,8,8A8,8,0,0,0,9,1Z"/><path class="White" d="M8.97931,15a.97586.97586,0,1,1,.97589-.97589A.98464.98464,0,0,1,8.97931,15Zm.23053-4.79071a1.18345,1.18345,0,0,0,.47925.87l-1.08222.46094A1.83329,1.83329,0,0,1,7.915,10.10339c0-2.25384,3.21142-2.44922,3.21142-4.32971,0-.88733-.692-1.65045-2.09362-1.65045A3.30207,3.30207,0,0,0,6.21155,5.57831l-.88733-.9585A4.71065,4.71065,0,0,1,9.17468,2.81055c2.16443,0,3.47754,1.22412,3.47754,2.75042C12.65222,8.24023,9.20984,8.47028,9.20984,10.20929Z"/></svg>