<svg id="Artwork" xmlns="http://www.w3.org/2000/svg" xmlns:xlink="http://www.w3.org/1999/xlink" viewBox="0 0 18 18"><defs><linearGradient id="linear-gradient" x1="-0.00972" y1="11.00012" x2="17.99036" y2="11.00012" gradientUnits="userSpaceOnUse"><stop offset="0" stop-color="#595959"/>
<stop offset="1" stop-color="#b3b3b3"/>
</linearGradient>
</defs><title>weather-haze</title>
<path style="fill:url(#linear-gradient)" d="M12.99009,12.24854a10.19692,10.19692,0,0,1-3.2373-.53711,8.56548,8.56548,0,0,0-5.52539,0,10.12339,10.12339,0,0,1-3.50781.52783.7498.7498,0,0,1,.041-1.499,8.644,8.644,0,0,0,2.99219-.45166,10.02893,10.02893,0,0,1,6.47461,0,8.56548,8.56548,0,0,0,5.52539,0A10.66515,10.66515,0,0,1,17.097,9.94092a.75009.75009,0,1,1,.28613,1.47265,9.21665,9.21665,0,0,0-1.15625.29786A10.19173,10.19173,0,0,1,12.99009,12.24854Z"/>
<path style="fill:url(#linear-gradient)" d="M3.00523,9.49463A10.26782,10.26782,0,0,1,.7733,9.24707a.99986.99986,0,0,1,.43359-1.95215,8.25759,8.25759,0,0,0,4.4668-.24365,10.27131,10.27131,0,0,1,6.63232,0,8.28262,8.28262,0,0,0,4.46729.24365.99986.99986,0,0,1,.43359,1.95215,10.23262,10.23262,0,0,1-5.5332-.29834,8.20816,8.20816,0,0,0-5.36768,0A10.38938,10.38938,0,0,1,3.00523,9.49463Z"/>
<path style="fill:url(#linear-gradient)" d="M8.99009,16.87305A9.8235,9.8235,0,0,1,5.87144,16.356a8.88356,8.88356,0,0,0-5.38379-.11133.37519.37519,0,0,1-.209-.7207,9.639,9.639,0,0,1,5.83008.12011,8.92489,8.92489,0,0,0,5.76269,0,9.63028,9.63028,0,0,1,5.854-.11279.375.375,0,0,1-.21094.71973,8.88725,8.88725,0,0,0-5.40576.105A9.82352,9.82352,0,0,1,8.99009,16.87305Z"/>
<path style="fill:url(#linear-gradient)" d="M10.99009,14.49805a9.9344,9.9344,0,0,1-3.1582-.52393,8.80946,8.80946,0,0,0-5.68359,0,10.42859,10.42859,0,0,1-1.57569.394.5.5,0,1,1-.165-.98632,9.39247,9.39247,0,0,0,1.42431-.35645,9.77858,9.77858,0,0,1,6.31641.00049,8.80946,8.80946,0,0,0,5.68359,0,9.83412,9.83412,0,0,1,3.686-.50391.49914.49914,0,0,1,.47119.52686.50935.50935,0,0,1-.52686.47119,8.92286,8.92286,0,0,0-3.314.4541A9.93442,9.93442,0,0,1,10.99009,14.49805Z"/>
</svg>