<?xml version="1.0" encoding="UTF-8"?>
<svg id="a" data-name="Artwork" xmlns="http://www.w3.org/2000/svg" viewBox="0 0 18 18">
  <defs>
    <style>
      .b {
        stroke-width: 0px;
	fill:#000000;
      }
    </style>
  </defs>
  <path class="b" d="m15,6c-.2433472,0-.4766235.0368652-.703125.0916138-.550293-.661499-1.3692017-1.0916138-2.296936-1.0916138-.3817139,0-.7437744.0783691-1.0797729.2084961-.3674927-1.829834-1.9822388-3.2084961-3.920166-3.2084961-2.2091064,0-4,1.7907715-4,4-1.6569214,0-3,1.3430786-3,3,0,1.1046143.8953857,2,2,2h14c1.1045532,0,2-.8953857,2-2,0-1.6569214-1.3431396-3-3-3Z"/>
  <path class="b" d="m17.9986572,14.947876c-.0255127-.996521-.7793579-1.8110962-1.7492676-1.9317627-.5496826-.6229248-1.3533936-1.0161133-2.2493896-1.0161133s-1.699707.3931885-2.2493896,1.0161133c-.9697876.1206665-1.7236938.9352417-1.7493286,1.9317627-.0008545.017334-.0012817.0346069-.0012817.052124,0,.5521851.447876,1,1,1h6c.5523071,0,1-.4478149,1-1,0-.0175171-.0004272-.03479-.0013428-.052124Z"/>
</svg>