<svg id="Artwork" xmlns="http://www.w3.org/2000/svg" viewBox="0 0 18 18"><defs><style>.cls-1{fill:#595959;}</style></defs><title>weather-unknown</title><path class="cls-1" d="M7.91493,10.10343c0-2.25388,3.21145-2.44925,3.21145-4.32973,0-.88731-.69195-1.65047-2.09365-1.65047a3.3021,3.3021,0,0,0-2.8212,1.45511l-.88731-.95853A4.71064,4.71064,0,0,1,9.17468,2.81055c2.16439,0,3.47755,1.22414,3.47755,2.75047,0,2.67925-3.44242,2.90926-3.44242,4.64827a1.18335,1.18335,0,0,0,.47926.87l-1.08219.461A1.83342,1.83342,0,0,1,7.91493,10.10343Z"/><circle class="cls-1" cx="8.97932" cy="14.02415" r="0.97585"/></svg>