<svg id="Artwork" xmlns="http://www.w3.org/2000/svg" xmlns:xlink="http://www.w3.org/1999/xlink" viewBox="0 0 18 18"><defs><style>.cls-1{fill:url(#linear-gradient);}</style><linearGradient id="linear-gradient" x1="1.75748" y1="209.5" x2="16.24903" y2="209.5" gradientTransform="translate(0 -200)" gradientUnits="userSpaceOnUse"><stop offset="0" stop-color="#595959"/><stop offset="1" stop-color="#b3b3b3"/></linearGradient></defs><title>weather-tornado-night</title><path class="cls-1" d="M2.73639,6.20087l10.89917.67651A4.24192,4.24192,0,0,0,15.0766,5H2.5387A6.3307,6.3307,0,0,1,2.73639,6.20087ZM16.13263,3H2.63641a7.51253,7.51253,0,0,1,.63971,1.22076l12.82379.708A3.55233,3.55233,0,0,0,16.13263,3ZM3.59546,8.29547l7.65643.584A21.80689,21.80689,0,0,0,14.47949,7H3.74561A9.85263,9.85263,0,0,1,3.59546,8.29547ZM2.16119,10.24341l4.69971.51581A34.73114,34.73114,0,0,1,10.01569,9H2.45416C2.36206,9.41736,2.25916,9.83118,2.16119,10.24341Zm.61609,2.184,2.58411.42279A11.56876,11.56876,0,0,1,7.49988,11H2.99048A10.91853,10.91853,0,0,0,2.77728,12.42737ZM2.6322,16a7.84157,7.84157,0,0,1,1.59949-3H1.75751A5.61972,5.61972,0,0,0,2.6322,16Z"/></svg>