<svg id="Artwork" xmlns="http://www.w3.org/2000/svg" xmlns:xlink="http://www.w3.org/1999/xlink" viewBox="0 0 18 18"><defs><style>.cls-1{fill:url(#linear-gradient);}.cls-2{fill:#f2f1ee;}.cls-3,.cls-4{fill:#36fff3;}.cls-3{opacity:0.4;}</style><linearGradient id="linear-gradient" x1="8" y1="5" x2="18" y2="5" gradientUnits="userSpaceOnUse"><stop offset="0" stop-color="#595959"/><stop offset="1" stop-color="#b3b3b3"/></linearGradient></defs><title>weather-rain-night</title><circle class="cls-1" cx="13" cy="5" r="5"/><path class="cls-2" d="M15,5a2.97867,2.97867,0,0,0-.70312.09161,2.94443,2.94443,0,0,0-3.37671-.88311A3.99959,3.99959,0,0,0,3,5,2.99992,2.99992,0,0,0,0,8a2,2,0,0,0,2,2H16a2,2,0,0,0,2-2A3,3,0,0,0,15,5Z"/><path class="cls-3" d="M5.50049,16a.50066.50066,0,0,1-.48535-.62109l1-4a.49975.49975,0,0,1,.96972.24218l-1,4A.4993.4993,0,0,1,5.50049,16Z"/><path class="cls-3" d="M9.50049,16a.50066.50066,0,0,1-.48535-.62109l1-4a.49975.49975,0,0,1,.96972.24218l-1,4A.4993.4993,0,0,1,9.50049,16Z"/><path class="cls-3" d="M13.50049,16a.50066.50066,0,0,1-.48535-.62109l1-4a.49975.49975,0,0,1,.96972.24218l-1,4A.4993.4993,0,0,1,13.50049,16Z"/><path class="cls-4" d="M3.50049,16a.50066.50066,0,0,1-.48535-.62109l1-4a.49975.49975,0,0,1,.96972.24218l-1,4A.4993.4993,0,0,1,3.50049,16Z"/><path class="cls-4" d="M7.50049,16a.50066.50066,0,0,1-.48535-.62109l1-4a.49975.49975,0,0,1,.96972.24218l-1,4A.4993.4993,0,0,1,7.50049,16Z"/><path class="cls-4" d="M11.50049,16a.50066.50066,0,0,1-.48535-.62109l1-4a.49975.49975,0,0,1,.96972.24218l-1,4A.4993.4993,0,0,1,11.50049,16Z"/></svg>