<?xml version="1.0" encoding="UTF-8"?>
<svg id="a" data-name="Artwork" xmlns="http://www.w3.org/2000/svg" viewBox="0 0 18 18">
  <defs>
    <style>
      .b {
        stroke-width: 0px;
	fill:#000000;
      }
    </style>
  </defs>
  <path class="b" d="m9.9987183,14.9481812c-.0219727-1.286377-.8528442-2.375-2.0063477-2.7794189.0045776-.0556641.0076294-.1118774.0076294-.1687622,0-1.1046143-.8954468-2-2-2-.7913208,0-1.4752197.4596558-1.7994995,1.1264038-.2180786-.081543-.4540405-.1264038-.7005005-.1264038-.8734741,0-1.6157227.5600586-1.8882446,1.3406982C.668457,12.8341064.0206299,13.8143921.0012207,14.9481812c-.0008545.0170898-.0012207.0344238-.0012207.0518188,0,.5521851.4477539,1,1,1h8c.5522461,0,1-.4478149,1-1,0-.017395-.0004272-.034729-.0012817-.0518188Z"/>
  <path class="b" d="m17.9986572,9.947876c-.0255737-.996521-.7794189-1.8110962-1.7493286-1.9317627-.5496826-.6229248-1.3533936-1.0161133-2.2493286-1.0161133-.8959961,0-1.6997681.3931885-2.2494507,1.0161133-.9697266.1206665-1.7236938.9352417-1.7492676,1.9317627-.0008545.017334-.0012817.0346069-.0012817.052124,0,.5521851.4478149,1,1,1h5.999939c.5523071,0,1.000061-.4478149,1.000061-1,0-.0175171-.0004272-.03479-.0013428-.052124Z"/>
</svg>