<?xml version="1.0" encoding="UTF-8"?>
<svg id="a" data-name="Artwork" xmlns="http://www.w3.org/2000/svg" viewBox="0 0 18 18">
  <defs>
    <style>
      .b {
        stroke-width: 0px;
	fill:#000000;
      }
    </style>
  </defs>
  <path class="b" d="m15,7c-.2432861,0-.4766235.0368652-.703125.0916138-.550293-.661499-1.3691406-1.0916138-2.296936-1.0916138-.3817139,0-.7437744.0783691-1.0797729.2084961-.3674927-1.829834-1.9821777-3.2084961-3.920166-3.2084961-2.2091064,0-4,1.7907715-4,4-1.6569214,0-3,1.3430786-3,3,0,1.1046143.8953857,2,2,2h3.2669678l-.4046631-.3330078,1.347168-2.3334961,1.2280182.4599609.2153411-1.293457h2.6943359l.2153228,1.293457,1.2280365-.4599609,1.347168,2.3334961-.4046631.3330078h3.2669678c1.1045532,0,2-.8953857,2-2,0-1.6569214-1.3431396-3-3-3Z"/>
  <polygon class="b" points="11.8480835 11.4329834 11.3480835 10.5669556 9.776001 11.1559448 9.5 9.5 8.5 9.5 8.223999 11.1559448 6.6519165 10.5669556 6.1519165 11.4329834 7.447998 12.5 6.1519165 13.5669556 6.6519165 14.4329834 8.223999 13.8440552 8.5 15.5 9.5 15.5 9.776001 13.8440552 11.3480835 14.4329834 11.8480835 13.5669556 10.552002 12.5 11.8480835 11.4329834"/>
  <polygon class="b" points="4.7081277 14.0324342 4.1668611 13.7199329 3.5000056 14.5300085 2.8331329 13.7199524 2.2918671 14.0324524 2.6599599 15.0150091 1.6249861 15.1874851 1.6249869 15.8124864 2.6599543 15.9850006 2.2918532 16.9675327 2.8331198 17.280034 3.4999944 16.4699915 4.1668671 17.2800476 4.7081329 16.9675476 4.3400401 15.9849909 5.3749948 15.8124819 5.374994 15.1874805 4.3400457 15.0149994 4.7081277 14.0324342"/>
  <polygon class="b" points="15.7081277 14.0324342 15.1668611 13.7199329 14.5000056 14.5300085 13.8331329 13.7199524 13.2918671 14.0324524 13.6599599 15.0150091 12.6249861 15.1874851 12.6249869 15.8124864 13.6599543 15.9850006 13.2918532 16.9675327 13.8331198 17.280034 14.4999944 16.4699915 15.1668671 17.2800476 15.7081329 16.9675476 15.3400401 15.9849909 16.3749948 15.8124819 16.374994 15.1874805 15.3400457 15.0149994 15.7081277 14.0324342"/>
</svg>