<svg id="Artwork" xmlns="http://www.w3.org/2000/svg" viewBox="0 0 18 18"><defs><style>.cls-1{fill:#f8d55f;}.cls-2{fill:#f2f1ee;}.cls-3,.cls-4{fill:#36fff3;}.cls-3{opacity:0.4;}</style></defs><title>weather-heavyrain-day</title><circle class="cls-1" cx="13" cy="5" r="5"/><path class="cls-2" d="M15,7a2.97867,2.97867,0,0,0-.70312.09161,2.94443,2.94443,0,0,0-3.37671-.88311A3.99959,3.99959,0,0,0,3,7a2.99992,2.99992,0,0,0-3,3,2,2,0,0,0,2,2H16a2,2,0,0,0,2-2A3,3,0,0,0,15,7Z"/><path class="cls-3" d="M5.50046,18a.50066.50066,0,0,1-.48535-.62109l1-4a.49975.49975,0,1,1,.96972.24218l-1,4A.4993.4993,0,0,1,5.50046,18Z"/><path class="cls-3" d="M9.50046,18a.50066.50066,0,0,1-.48535-.62109l1-4a.49975.49975,0,0,1,.96972.24218l-1,4A.4993.4993,0,0,1,9.50046,18Z"/><path class="cls-3" d="M13.50046,18a.50066.50066,0,0,1-.48535-.62109l1-4a.49975.49975,0,0,1,.96972.24218l-1,4A.4993.4993,0,0,1,13.50046,18Z"/><path class="cls-4" d="M3.50046,18a.50066.50066,0,0,1-.48535-.62109l1-4a.49975.49975,0,0,1,.96972.24218l-1,4A.4993.4993,0,0,1,3.50046,18Z"/><path class="cls-4" d="M6.00046,16a.50066.50066,0,0,1-.48535-.62109l.5-2a.49975.49975,0,1,1,.96972.24218l-.5,2A.4993.4993,0,0,1,6.00046,16Z"/><path class="cls-4" d="M7.50046,18a.50066.50066,0,0,1-.48535-.62109l1-4a.49975.49975,0,0,1,.96972.24218l-1,4A.4993.4993,0,0,1,7.50046,18Z"/><path class="cls-4" d="M10.00046,16a.50066.50066,0,0,1-.48535-.62109l.5-2a.49975.49975,0,0,1,.96972.24218l-.5,2A.4993.4993,0,0,1,10.00046,16Z"/><path class="cls-4" d="M11.50046,18a.50066.50066,0,0,1-.48535-.62109l1-4a.49975.49975,0,0,1,.96972.24218l-1,4A.4993.4993,0,0,1,11.50046,18Z"/><path class="cls-4" d="M14.00046,16a.50066.50066,0,0,1-.48535-.62109l.5-2a.49975.49975,0,0,1,.96972.24218l-.5,2A.4993.4993,0,0,1,14.00046,16Z"/></svg>