<svg id="Artwork" xmlns="http://www.w3.org/2000/svg" viewBox="0 0 18 18"><defs><style>.cls-1{fill:#fc4c4c;}</style></defs><title>weather-hurricane-day</title><path class="cls-1" d="M16.95337.681C9.50586.62286,3.78058,3.99176,3.42139,8.59326a7.99175,7.99175,0,0,0,.85919,3.45331c1.15771,2.3219-1.144,3.74762-3.30579,4.648a.35737.35737,0,0,0,.1344.687c7.44739.05811,13.17249-3.31091,13.5318-7.91241a7.99061,7.99061,0,0,0-.85919-3.45331c-1.15772-2.32178,1.144-3.7475,3.30591-4.64789A.35736.35736,0,0,0,16.95337.681ZM9,10.6875a1.75,1.75,0,1,1,1.74988-1.75A1.75,1.75,0,0,1,9,10.6875Z"/></svg>