<?xml version="1.0" encoding="UTF-8"?>
<svg id="a" data-name="Artwork" xmlns="http://www.w3.org/2000/svg" viewBox="0 0 18 18">
  <defs>
    <style>
      .b {
        opacity: .3;
      }

      .b, .c {
        stroke-width: 0px;
	fill:#000000;
      }
    </style>
  </defs>
  <path class="c" d="m15,5c-.2433472,0-.4766235.0368652-.703125.0916138-.550293-.661499-1.3692017-1.0916138-2.296936-1.0916138-.3817139,0-.7437744.0783691-1.0797729.2084961-.3674927-1.829834-1.9822388-3.2084961-3.920166-3.2084961-2.2091064,0-4,1.7907715-4,4-1.6569214,0-3,1.3430786-3,3,0,1.1046143.8953857,2,2,2h14c1.1045532,0,2-.8953857,2-2,0-1.6569214-1.3431396-3-3-3Z"/>
  <path class="b" d="m5.5004883,16c-.0400391,0-.0810547-.0048828-.121582-.0151367-.2680664-.0668945-.4311523-.3383789-.3637695-.605957l1-4c.0668945-.2680664.3369141-.4335938.605957-.3637695.2680664.0668945.4311523.3383789.3637695.605957l-1,4c-.0566406.2275391-.2602539.3789062-.484375.3789062Z"/>
  <path class="b" d="m9.5004883,16c-.0400391,0-.0810547-.0048828-.121582-.0151367-.2680664-.0668945-.4311523-.3383789-.3637695-.605957l1-4c.0664062-.2680664.3378906-.4335938.605957-.3637695.2680664.0668945.4311523.3383789.3637695.605957l-1,4c-.0566406.2275391-.2602539.3789062-.484375.3789062Z"/>
  <path class="b" d="m13.5004883,16c-.0400391,0-.0810547-.0048828-.121582-.0151367-.2680664-.0668945-.4311523-.3383789-.3637695-.605957l1-4c.0664062-.2680664.3359375-.4335938.605957-.3637695.2680664.0668945.4311523.3383789.3637695.605957l-1,4c-.0566406.2275391-.2602539.3789062-.484375.3789062Z"/>
  <path class="c" d="m3.5004883,16c-.0400391,0-.0810547-.0048828-.121582-.0151367-.2680664-.0668945-.4311523-.3383789-.3637695-.605957l1-4c.0664062-.2680664.3378906-.4335938.605957-.3637695.2680664.0668945.4311523.3383789.3637695.605957l-1,4c-.0566406.2275391-.2602539.3789062-.484375.3789062Z"/>
  <path class="c" d="m7.5004883,16c-.0400391,0-.0810547-.0048828-.121582-.0151367-.2680664-.0668945-.4311523-.3383789-.3637695-.605957l1-4c.0664062-.2680664.3359375-.4335938.605957-.3637695.2680664.0668945.4311523.3383789.3637695.605957l-1,4c-.0566406.2275391-.2602539.3789062-.484375.3789062Z"/>
  <path class="c" d="m11.5004883,16c-.0400391,0-.0810547-.0048828-.121582-.0151367-.2680664-.0668945-.4311523-.3383789-.3637695-.605957l1-4c.0668945-.2680664.3369141-.4335938.605957-.3637695.2680664.0668945.4311523.3383789.3637695.605957l-1,4c-.0566406.2275391-.2602539.3789062-.484375.3789062Z"/>
</svg>