<svg id="Artwork" xmlns="http://www.w3.org/2000/svg" viewBox="0 0 18 18"><defs><style>.cls-1{fill:#c8cbcc;}.cls-2,.cls-3{fill:#36fff3;}.cls-3{opacity:0.4;}</style></defs><title>weather-sleet</title><path class="cls-1" d="M15,7a2.97867,2.97867,0,0,0-.70312.09161,2.94443,2.94443,0,0,0-3.37671-.88311A3.99959,3.99959,0,0,0,3,7a2.99992,2.99992,0,0,0-3,3,2,2,0,0,0,2,2H16a2,2,0,0,0,2-2A3,3,0,0,0,15,7Z"/><polygon class="cls-2" points="14.416 14.032 13.875 13.72 13.208 14.53 12.541 13.72 12 14.032 12.368 15.015 11.333 15.187 11.333 15.812 12.368 15.985 12 16.968 12.541 17.28 13.208 16.47 13.875 17.28 14.416 16.968 14.048 15.985 15.083 15.812 15.083 15.187 14.048 15.015 14.416 14.032"/><path class="cls-3" d="M5.50049,18a.50066.50066,0,0,1-.48535-.62109l1-4a.49975.49975,0,0,1,.96972.24218l-1,4A.4993.4993,0,0,1,5.50049,18Z"/><path class="cls-3" d="M9.50049,18a.50066.50066,0,0,1-.48535-.62109l1-4a.49975.49975,0,0,1,.96972.24218l-1,4A.4993.4993,0,0,1,9.50049,18Z"/><path class="cls-2" d="M3.50049,18a.50066.50066,0,0,1-.48535-.62109l1-4a.49975.49975,0,0,1,.96972.24218l-1,4A.4993.4993,0,0,1,3.50049,18Z"/><path class="cls-2" d="M6.00049,16a.50066.50066,0,0,1-.48535-.62109l.5-2a.49975.49975,0,0,1,.96972.24218l-.5,2A.4993.4993,0,0,1,6.00049,16Z"/><path class="cls-2" d="M7.50049,18a.50066.50066,0,0,1-.48535-.62109l1-4a.49975.49975,0,0,1,.96972.24218l-1,4A.4993.4993,0,0,1,7.50049,18Z"/></svg>