<svg id="Artwork" xmlns="http://www.w3.org/2000/svg" viewBox="0 0 18 18"><defs><style>.cls-1{fill:#c8cbcc;}.cls-2{fill:#36fff3;}</style></defs><title>weather-chancesnow</title><path class="cls-1" d="M15,7a2.97867,2.97867,0,0,0-.70312.09161,2.94443,2.94443,0,0,0-3.37671-.88311A3.99959,3.99959,0,0,0,3,7a2.99992,2.99992,0,0,0-3,3,2,2,0,0,0,2,2H16a2,2,0,0,0,2-2A3,3,0,0,0,15,7Z"/><polygon class="cls-2" points="11.848 11.433 11.348 10.567 9.776 11.156 9.5 9.5 8.5 9.5 8.224 11.156 6.652 10.567 6.152 11.433 7.448 12.5 6.152 13.567 6.652 14.433 8.224 13.844 8.5 15.5 9.5 15.5 9.776 13.844 11.348 14.433 11.848 13.567 10.552 12.5 11.848 11.433"/><polygon class="cls-2" points="4.708 14.032 4.167 13.72 3.5 14.53 2.833 13.72 2.292 14.032 2.66 15.015 1.625 15.187 1.625 15.812 2.66 15.985 2.292 16.968 2.833 17.28 3.5 16.47 4.167 17.28 4.708 16.968 4.34 15.985 5.375 15.812 5.375 15.187 4.34 15.015 4.708 14.032"/><polygon class="cls-2" points="15.708 14.032 15.167 13.72 14.5 14.53 13.833 13.72 13.292 14.032 13.66 15.015 12.625 15.187 12.625 15.812 13.66 15.985 13.292 16.968 13.833 17.28 14.5 16.47 15.167 17.28 15.708 16.968 15.34 15.985 16.375 15.812 16.375 15.187 15.34 15.015 15.708 14.032"/></svg>