<?xml version="1.0" encoding="UTF-8"?>
<svg id="a" data-name="Artwork" xmlns="http://www.w3.org/2000/svg" viewBox="0 0 18 18">
  <defs>
    <style>
      .b {
        stroke-width: 0px;
	fill:#000000;
      }
    </style>
  </defs>
  <path class="b" d="m2.7363892,6.2008667l10.8991699.6765137c.6791382-.5463867,1.1901245-1.1524048,1.44104-1.8773804H2.5386963c.1087036.4083862.1707764.8081665.1976929,1.2008667Zm13.3962402-3.2008667H2.6364136c.267395.4165039.4772949.822876.6397095,1.2207642l12.8237915.7080078c.1795654-.5626831.2047729-1.1965942.0327148-1.928772ZM3.595459,8.2954712l7.6564331.5839844c1.2086182-.6174927,2.3447266-1.2050781,3.2276001-1.8794556H3.7456055c-.019043.4386597-.074585.8695679-.1501465,1.2954712Zm-1.4342651,1.947937l4.699707.5158081c1.0198975-.663208,2.1095581-1.2253418,3.1547852-1.7592163H2.4541626c-.0921021.4173584-.1950073.8311768-.2929688,1.2434082Zm.6160889,2.18396l2.5841064.4227905c.6253052-.7074585,1.3562012-1.3126831,2.1384888-1.8501587H2.9904785c-.098877.4743652-.1781006.9490967-.2131958,1.4273682Zm-.1450806,3.5726318c.3276978-1.1791382.8897095-2.1604004,1.5994873-3H1.7575073c.0075073.9691162.2329102,1.9591064.8746948,3Z"/>
</svg>