<svg id="Artwork" xmlns="http://www.w3.org/2000/svg" viewBox="0 0 18 18"><defs><style>.cls-1{fill:#f2f1ee;}</style></defs><title>weather-cloudy-night</title><path class="cls-1" d="M15,6a2.97867,2.97867,0,0,0-.70312.09161,2.94443,2.94443,0,0,0-3.37671-.88311A3.99959,3.99959,0,0,0,3,6,2.99992,2.99992,0,0,0,0,9a2,2,0,0,0,2,2H16a2,2,0,0,0,2-2A3,3,0,0,0,15,6Z"/><path class="cls-1" d="M17.99866,14.94788a1.99924,1.99924,0,0,0-1.74927-1.93177,2.99782,2.99782,0,0,0-4.49878,0,1.9995,1.9995,0,0,0-1.74933,1.93177C10.00043,14.96521,10,14.98248,10,15a1.00017,1.00017,0,0,0,1,1h6a1,1,0,0,0,1-1C18,14.98248,17.99957,14.96521,17.99866,14.94788Z"/></svg>