<?xml version="1.0" encoding="UTF-8"?>
<svg id="a" data-name="Artwork" xmlns="http://www.w3.org/2000/svg" xmlns:xlink="http://www.w3.org/1999/xlink" viewBox="0 0 18 18">
  <defs>
    <style>
      .c, .d {
        stroke-width: 0px;
	fill:#000000;
      }

      .d {
        fill: url(#b);
      }
    </style>
    <linearGradient id="b" x1="3.000061" y1="7.8642578" x2="14.6787109" y2="7.8642578" gradientUnits="userSpaceOnUse">
      <stop offset="0" stop-color="#000" stop-opacity=".3"/>
      <stop offset="1" stop-color="#000" stop-opacity=".8"/>
    </linearGradient>
  </defs>
  <path class="c" d="m9.9987183,14.9481812c-.0219727-1.286377-.8528442-2.375-2.0063477-2.7794189.0045776-.0556641.0076294-.1118774.0076294-.1687622,0-1.1046143-.8954468-2-2-2-.7913208,0-1.4752197.4596558-1.7994995,1.1264038-.2180786-.081543-.4540405-.1264038-.7005005-.1264038-.8734741,0-1.6157227.5600586-1.8882446,1.3406982C.668457,12.8341064.0206299,13.8143921.0012207,14.9481812c-.0008545.0170898-.0012207.0344238-.0012207.0518188,0,.5521851.4477539,1,1,1h8c.5522461,0,1-.4478149,1-1,0-.017395-.0004272-.034729-.0012817-.0518188Z"/>
  <path class="c" d="m17.9986572,9.947876c-.0255737-.996521-.7794189-1.8110962-1.7493286-1.9317627-.5496826-.6229248-1.3533936-1.0161133-2.2493286-1.0161133-.8959961,0-1.6997681.3931885-2.2494507,1.0161133-.9697266.1206665-1.7236938.9352417-1.7492676,1.9317627-.0008545.017334-.0012817.0346069-.0012817.052124,0,.5521851.4478149,1,1,1h5.999939c.5523071,0,1.000061-.4478149,1.000061-1,0-.0175171-.0004272-.03479-.0013428-.052124Z"/>
  <path class="d" d="m9,10l.0029297-.1079102c.0332031-1.3139648.9750977-2.4663086,2.2475586-2.7963867.7397461-.7001953,1.7231445-1.0957031,2.7495117-1.0957031.229126,0,.4561157.0198975.6787109.0582886-.8070068-2.3607178-3.0445557-4.0582886-5.6786499-4.0582886-3.3137207,0-6,2.6862793-6,6,0,.7028198.1212158,1.3771973.3432617,2.0039673.1367188-.0073853.2746582-.0056152.4130249.0067749.5625-.6303711,1.3798828-1.0107422,2.2436523-1.0107422,1.4887695,0,2.7280273,1.090332,2.9609375,2.5141602.8636475.487854,1.5142822,1.2832642,1.8286743,2.2143555,1.0460815-.326416,1.9688721-.9317017,2.6821289-1.7285156h-2.4717407c-1.1030273,0-2-.8969727-2-2Z"/>
</svg>