<svg id="Artwork" xmlns="http://www.w3.org/2000/svg" xmlns:xlink="http://www.w3.org/1999/xlink" viewBox="0 0 18 18"><defs><style>.cls-1{fill:url(#linear-gradient);}</style><linearGradient id="linear-gradient" x1="1.75748" y1="209.5" x2="16.24903" y2="209.5" gradientTransform="translate(0 -200)" gradientUnits="userSpaceOnUse"><stop offset="0" stop-color="#595959"/><stop offset="1" stop-color="#b3b3b3"/></linearGradient></defs><title>weather-tornado</title><path class="cls-1" d="M2.5387,5a6.3307,6.3307,0,0,1,.19769,1.20087l10.89917.67651A4.24192,4.24192,0,0,0,15.0766,5H2.5387ZM16.13263,3H2.63641a7.51253,7.51253,0,0,1,.63971,1.22076l12.82379.708A3.55233,3.55233,0,0,0,16.13263,3ZM3.74561,7a9.85263,9.85263,0,0,1-.15015,1.29547l7.65643.584A21.80689,21.80689,0,0,0,14.47949,7H3.74561ZM2.45416,9c-.0921.41736-.195.83118-.293,1.24341l4.69971.51581A34.73114,34.73114,0,0,1,10.01569,9H2.45416Zm.53632,2a10.91853,10.91853,0,0,0-.2132,1.42737l2.58411.42279A11.56876,11.56876,0,0,1,7.49988,11H2.99048Zm-1.233,2a5.61972,5.61972,0,0,0,.87469,3,7.84157,7.84157,0,0,1,1.59949-3H1.75751Z"/></svg>