<svg id="Artwork" xmlns="http://www.w3.org/2000/svg" viewBox="0 0 18 18"><defs><style>.cls-1{fill:#36fff3;}</style></defs><title>weather-snow-night</title><path class="cls-1" d="M15.89758,12.46069l-.57458-.37518a1.2226,1.2226,0,0,0,.63721-.6145.08758.08758,0,0,0-.04011-.12549,1.34521,1.34521,0,0,0-1.06652-.00122l-.02185.00952a.77074.77074,0,0,1-.87861-.194l1.14667-.49329a1.41608,1.41608,0,0,0,.696-.64727.08829.08829,0,0,0-.04261-.12171,1.34509,1.34509,0,0,0-1.07312-.00409l-.91784.386a1.48878,1.48878,0,0,1-1.3913-.12555l-.92169-.60071a.66168.66168,0,0,1,0-1.10663l.92169-.6007a1.48875,1.48875,0,0,1,1.3913-.12555l.91784.386a1.34534,1.34534,0,0,0,1.07312-.004.08828.08828,0,0,0,.04261-.1217,1.41665,1.41665,0,0,0-.696-.6474L13.95312,6.8399a.771.771,0,0,1,.87861-.194l.02185.00946a1.34551,1.34551,0,0,0,1.06652-.0011.0877.0877,0,0,0,.04011-.12561,1.22254,1.22254,0,0,0-.63721-.61438l.57458-.37531a2.391,2.391,0,0,0,.84412-.9602.08383.08383,0,0,0-.06909-.12061,2.36567,2.36567,0,0,0-1.24781.2561l-.61.31354a1.234,1.234,0,0,0-.20966-.863.08646.08646,0,0,0-.12793-.02777,1.36533,1.36533,0,0,0-.5343.92957l-.00281.024a.77843.77843,0,0,1-.60608.66919L13.48309,4.513a1.43061,1.43061,0,0,0-.20874-.9306.08708.08708,0,0,0-.126-.02381,1.36614,1.36614,0,0,0-.53992.934l-.12689.9936A1.50891,1.50891,0,0,1,11.6778,6.6369l-.9773.50342a.64526.64526,0,0,1-.6253-.016A.65461.65461,0,0,1,9.74878,6.587L9.693,5.48291A1.513,1.513,0,0,1,10.2807,4.2066l.79089-.6076a1.36587,1.36587,0,0,0,.53321-.938.08776.08776,0,0,0-.08344-.0979,1.40491,1.40491,0,0,0-.90466.28333l-.99744.75347a.78317.78317,0,0,1,.2724-.86328l.01911-.0144a1.366,1.366,0,0,0,.53228-.93085.087.087,0,0,0-.08795-.09765,1.21279,1.21279,0,0,0-.847.24859l-.03534-.68878A2.4095,2.4095,0,0,0,9.06909.03711a.083.083,0,0,0-.1383,0,2.40755,2.40755,0,0,0-.40357,1.21643l-.03546.68878a1.21272,1.21272,0,0,0-.847-.24859.08691.08691,0,0,0-.08777.09765,1.36531,1.36531,0,0,0,.5321.93085l.01911.0144a.78325.78325,0,0,1,.27258.86328l-.99762-.75347a1.4042,1.4042,0,0,0-.90448-.28333.08785.08785,0,0,0-.08362.0979,1.36678,1.36678,0,0,0,.5332.938l.7909.6076a1.51268,1.51268,0,0,1,.58758,1.27631L8.2511,6.587a.65406.65406,0,0,1-.32642.53729.64493.64493,0,0,1-.62512.016L6.3222,6.6369a1.50891,1.50891,0,0,1-.80371-1.15069l-.12689-.9936a1.36562,1.36562,0,0,0-.54-.934.08709.08709,0,0,0-.126.02381,1.43067,1.43067,0,0,0-.20874.9306l.1493,1.24683A.77813.77813,0,0,1,4.06,5.09064l-.00293-.024A1.36544,1.36544,0,0,0,3.52289,4.137a.08666.08666,0,0,0-.12811.02777,1.23466,1.23466,0,0,0-.20966.863L2.5752,4.71429a2.36635,2.36635,0,0,0-1.24793-.2561.08385.08385,0,0,0-.06909.12061,2.39154,2.39154,0,0,0,.84418.9602l.57464.37531a1.22275,1.22275,0,0,0-.63733.61438.08783.08783,0,0,0,.0401.12561,1.34553,1.34553,0,0,0,1.06653.0011l.022-.00946a.77108.77108,0,0,1,.87861.194l-1.14679.49329a1.41652,1.41652,0,0,0-.69581.6474.08812.08812,0,0,0,.04242.1217,1.34551,1.34551,0,0,0,1.07319.004l.91778-.386a1.489,1.489,0,0,1,1.39142.12555l.92157.6007a.66153.66153,0,0,1,0,1.10663l-.92157.60071a1.489,1.489,0,0,1-1.39142.12555l-.91778-.386a1.34526,1.34526,0,0,0-1.07319.00409.08814.08814,0,0,0-.04242.12171,1.416,1.416,0,0,0,.69581.64727l1.14679.49329a.77082.77082,0,0,1-.87861.194l-.022-.00952a1.34524,1.34524,0,0,0-1.06653.00122.0877.0877,0,0,0-.0401.12549,1.22281,1.22281,0,0,0,.63733.6145l-.57464.37518a2.39111,2.39111,0,0,0-.84418.96033.08389.08389,0,0,0,.06909.12061A2.36645,2.36645,0,0,0,2.5752,13.2854l.60992-.31348a1.23441,1.23441,0,0,0,.20966.863.08658.08658,0,0,0,.12811.02783,1.36557,1.36557,0,0,0,.53418-.92962L4.06,12.90918a.77806.77806,0,0,1,.60608-.66925l-.1493,1.24689a1.43041,1.43041,0,0,0,.20874.93048.08716.08716,0,0,0,.126.02392,1.36585,1.36585,0,0,0,.54-.934l.12689-.99359a1.50871,1.50871,0,0,1,.80371-1.15069l.97736-.50348a.64522.64522,0,0,1,.62512.016.65422.65422,0,0,1,.32642.53729l.05566,1.10419a1.51274,1.51274,0,0,1-.58758,1.2763l-.7909.60749a1.36726,1.36726,0,0,0-.5332.938.088.088,0,0,0,.08362.098,1.40432,1.40432,0,0,0,.90448-.28333l.99762-.75348a.78315.78315,0,0,1-.27258.86322l-.01911.01447a1.36529,1.36529,0,0,0-.5321.93072.08707.08707,0,0,0,.08777.09778,1.21277,1.21277,0,0,0,.847-.24859l.03546.68872a2.40684,2.40684,0,0,0,.40357,1.21637.08285.08285,0,0,0,.1383,0,2.40878,2.40878,0,0,0,.40369-1.21637l.03534-.68872a1.21284,1.21284,0,0,0,.847.24859.0872.0872,0,0,0,.08795-.09778,1.366,1.366,0,0,0-.53228-.93072l-.01911-.01447a.78307.78307,0,0,1-.2724-.86322l.99744.75348a1.405,1.405,0,0,0,.90466.28333.08786.08786,0,0,0,.08344-.098,1.36635,1.36635,0,0,0-.53321-.938l-.79089-.60749a1.513,1.513,0,0,1-.58771-1.2763l.05579-1.10419a.65477.65477,0,0,1,.32642-.53729.64555.64555,0,0,1,.6253-.016l.9773.50348a1.50871,1.50871,0,0,1,.80371,1.15069l.12689.99359a1.36637,1.36637,0,0,0,.53992.934.08715.08715,0,0,0,.126-.02392,1.43035,1.43035,0,0,0,.20874-.93048L13.334,12.23993a.77835.77835,0,0,1,.60608.66925l.00281.02393a1.36545,1.36545,0,0,0,.5343.92962.08638.08638,0,0,0,.12793-.02783,1.2338,1.2338,0,0,0,.20966-.863l.61.31348a2.36577,2.36577,0,0,0,1.24781.25623.08386.08386,0,0,0,.06909-.12061A2.39052,2.39052,0,0,0,15.89758,12.46069Z"/></svg>