<?xml version="1.0" encoding="UTF-8"?>
<svg id="a" data-name="Artwork" xmlns="http://www.w3.org/2000/svg" xmlns:xlink="http://www.w3.org/1999/xlink" viewBox="0 0 18 18">
  <defs>
    <style>
      .c {
        fill: url(#b);
        stroke-width: 0px;
      }
    </style>
    <linearGradient id="b" x1="1" y1="9" x2="17" y2="9" gradientUnits="userSpaceOnUse">
      <stop offset="0" stop-color="#000" stop-opacity=".3"/>
      <stop offset="1" stop-color="#000" stop-opacity=".8"/>
    </linearGradient>
  </defs>
  <path class="c" d="m9,1C4.5817261,1,1,4.5817261,1,9s3.5817261,8,8,8,8-3.5817261,8-8S13.4182739,1,9,1Zm-.0206909,14c-.5321655,0-.9758301-.4436646-.9758301-.9758911,0-.5321655.4436646-.9758301.9758301-.9758301.5322266,0,.9758911.4436646.9758911.9758301,0,.5322266-.4436646.9758911-.9758911.9758911Zm.2305298-4.7907104c0,.2838745.1775513.6389771.479248.8699951l-1.0822144.4609375c-.479248-.40802-.6918945-.9046021-.6918945-1.4368286,0-2.2538452,3.2114258-2.4492187,3.2114258-4.3297119,0-.8873291-.6919556-1.6504517-2.0936279-1.6504517-1.3309937,0-2.164917.5860596-2.821228,1.4550781l-.8873291-.9584961c.8517456-1.1000366,2.1644287-1.8092651,3.8504639-1.8092651,2.1644287,0,3.4775391,1.2241211,3.4775391,2.7504272,0,2.6792603-3.4423828,2.9093018-3.4423828,4.6483154Z"/>
</svg>