<?xml version="1.0" encoding="UTF-8"?>
<svg id="a" data-name="Artwork" xmlns="http://www.w3.org/2000/svg" viewBox="0 0 18 18">
  <defs>
    <style>
      .b {
        stroke-width: 0px;
	fill:#000000;
      }
    </style>
  </defs>
  <path class="b" d="m15.897583,12.4603882l-.574585-.3751831c.2821045-.0865479.4680786-.3304443.637207-.614502.0271606-.0455322.0084839-.1046143-.0401001-.1254883-.3389282-.1468506-.7244873-.1483154-1.0665283-.0012207l-.0218506.0095215c-.2977295.1280518-.6502075.0582886-.8786011-.1940308l1.1466675-.4932861c.2998657-.1290283.5454102-.3580933.6959839-.6473389.0236206-.0453491.0040894-.1011963-.0426025-.1217041-.3406982-.1496582-.7288818-.1520996-1.0731201-.0040894l-.9178467.3861084c-.4559937.1918335-.9765015.1448364-1.3912964-.1256104l-.9216919-.600708c-.1992188-.1298828-.2988281-.3415527-.2988281-.5532837,0-.2116699.0996094-.4234009.2988281-.5532837l.9216919-.600708c.4147949-.2703857.9353027-.3173828,1.3912964-.1256104l.9178467.3859863c.3442383.1481323.7324219.1456299,1.0731201-.0039673.0466919-.0205078.0662231-.0762939.0426025-.1217041-.1505737-.2891846-.3961182-.5183716-.6959839-.6473999l-1.1466675-.4932861c.2283936-.2521973.5808716-.3220215.8786011-.1940308l.0218506.0095215c.342041.1470947.7276001.1455688,1.0665283-.0010986.048584-.0209961.0672607-.0800171.0401001-.1256104-.1691284-.2839966-.3551025-.5280151-.637207-.6143799l.574585-.3753052c.3634033-.2373047.6549072-.569519.8441162-.9602051.026062-.0537109-.0100098-.1165161-.0690918-.1206055-.430603-.0302734-.8621216.0578003-1.2478027.2561035l-.6100464.3134766c.0668335-.2891846-.0499878-.5733643-.2096558-.8629761-.0256348-.0463867-.0856934-.0596313-.1279297-.027832-.2957764.2223511-.4898682.5578003-.5343018.9296265l-.0028076.0239868c-.0387573.3234863-.2750854.5961304-.6060791.6691895l.1491089-1.2467651c.0390015-.3261108-.0354004-.6547241-.2087402-.930603-.0273438-.043396-.0848999-.0543213-.1260376-.0238037-.2988281.22229-.4951172.5596924-.539917.934021l-.1268921.9935913c-.0631104.4934692-.3638306.9240112-.8037109,1.1506958l-.9772949.503418c-.2114258.1088867-.4432983.0898438-.6253052-.0160522-.1820679-.1057739-.31427-.2984619-.326416-.5372925l-.0557861-1.1040649c-.0250854-.4971313.1947632-.9745483.5877075-1.2763062l.7908936-.607605c.2993774-.2261353.4915161-.565979.5332031-.9379883.0056763-.0510254-.0325317-.0958252-.0834351-.0979004-.3239746-.0133057-.6436768.0861816-.9046631.2832642l-.9974365.75354c-.1027832-.3254395.0134277-.6677246.2723999-.8633423l.019104-.0144043c.2975464-.2246704.4888916-.5617065.5322876-.9307861.0062256-.0527954-.0351562-.0986938-.0879517-.0977173-.3289185.0055542-.6315918.0458374-.8469849.2485962l-.0353394-.6887817c-.0223999-.4356079-.1624146-.8560181-.4036865-1.2163696-.0330811-.0494995-.1051025-.0494995-.1383057,0-.241394.3603516-.3812256.7807617-.4035645,1.2163696l-.0354614.6887817c-.215332-.2027588-.5180664-.243042-.8469849-.2485962-.0527954-.0009766-.0939941.0449219-.0877686.0977173.0432129.3690796.2346191.7061157.5321045.9307861l.019104.0144043c.2590942.1956177.3752441.5379028.272583.8633423l-.9976196-.75354c-.2608643-.1970825-.5805054-.2965698-.90448-.2832642-.0510864.0020752-.0891724.046875-.0836182.0979004.0419312.3720093.2338257.711853.5332031.9379883l.7908936.607605c.3928833.3017578.612793.7791748.5875854,1.2763062l-.0556641,1.1040649c-.0120239.2388306-.1442261.4315186-.326416.5372925-.1820068.105896-.4138794.124939-.6251221.0160522l-.977356-.503418c-.4398804-.2266846-.7406006-.6572266-.8037109-1.1506958l-.1268921-.9935913c-.0447998-.3743286-.2410278-.711731-.5400391-.934021-.0410767-.0305176-.0987549-.0195923-.1260376.0238037-.1733398.2758789-.2477417.6044922-.2087402.930603l.149292,1.2467651c-.3310547-.0730591-.5675049-.3457031-.6060791-.6691895l-.0029297-.0239868c-.0444946-.3718262-.2384033-.7072754-.5341797-.9296265-.0421753-.0317993-.102478-.0185547-.1281128.027832-.159668.2896118-.2763672.5737915-.2096558.8629761l-.6099243-.3134766c-.3858032-.1983032-.8173218-.286377-1.2479248-.2561035-.059082.0040894-.0950928.0668945-.0690918.1206055.189209.390686.480835.7229004.8441772.9602051l.574646.3753052c-.2821045.0863647-.4682007.3303833-.6373291.6143799-.0270996.0455933-.0083618.1046143.0401001.1256104.3389282.1466675.7244873.1481934,1.0665283.0010986l.0219727-.0095215c.2976074-.1279907.6500854-.0581665.8786011.1940308l-1.1467896.4932861c-.2998047.1290283-.5452271.3582153-.6958008.6473999-.0238037.0454102-.0042114.1011963.0424194.1217041.3406982.1495972.7290649.1520996,1.0731812.0039673l.9177856-.3859863c.4559937-.1917725.9765015-.1447754,1.3914185.1256104l.9215698.600708c.1992188.1298828.2989502.3416138.2989502.5532837,0,.211731-.0997314.4234009-.2989502.5532837l-.9215698.600708c-.414917.2704468-.9354248.3174438-1.3914185.1256104l-.9177856-.3861084c-.3441162-.1480103-.7324829-.1455688-1.0731812.0040894-.0466309.0205078-.0662231.076355-.0424194.1217041.1505737.2892456.3959961.5183105.6958008.6473389l1.1467896.4932861c-.2285156.2523193-.5809937.3220825-.8786011.1940308l-.0219727-.0095215c-.342041-.1470947-.7276001-.1456299-1.0665283.0012207-.0484619.020874-.0671997.0799561-.0401001.1254883.1691284.2840576.3552246.5279541.6373291.614502l-.574646.3751831c-.3633423.2373047-.6549683.569519-.8441772.9603271-.026001.0536499.0100098.116394.0690918.1205444.430603.0303345.8621216-.0578613,1.2479248-.2561646l.6099243-.3135376c-.0667114.2892456.0499878.5735474.2096558.8630371.0256348.0465088.0859375.0595703.1281128.027771.2957764-.22229.4896851-.5578003.5341797-.9295654l.0029297-.0239258c.0385742-.3236084.2750244-.5961914.6060791-.6693115l-.149292,1.2469482c-.0390015.3259888.0354004.6546021.2087402.930481.0272827.043396.0849609.0543213.1260376.0238647.2990112-.22229.4952393-.5597534.5400391-.93396l.1268921-.9935913c.0631104-.4935913.3638306-.9241333.8037109-1.1506958l.977356-.50354c.2112427-.1087646.4431152-.0897827.6251221.0159912.1821899.105896.3143921.298645.326416.5373535l.0556641,1.104187c.0252075.4970093-.1947021.9744873-.5875854,1.2763062l-.7908936.6074829c-.2993774.2261963-.491272.5661011-.5332031.9379883-.0055542.0510254.0325317.0958862.0836182.0980225.3239746.0133057.6436157-.0862427.90448-.2833252l.9976196-.753479c.1026611.3253174-.0134888.6676636-.272583.8631592l-.019104.0145264c-.2974854.2247314-.4888916.5617065-.5321045.9307251-.0062256.0527954.0349731.0986938.0877686.0977783.3289185-.0054932.6316528-.0457764.8469849-.2485962l.0354614.6887207c.0223389.4356689.1621704.8560791.4035645,1.2163696.0332031.0496216.1052246.0496216.1383057,0,.241272-.3602905.3812866-.7807007.4036865-1.2163696l.0353394-.6887207c.2153931.2028198.5180664.243103.8469849.2485962.0527954.0009155.0941772-.0449829.0879517-.0977783-.043396-.3690186-.2347412-.7059937-.5322876-.9307251l-.019104-.0145264c-.2589722-.1954956-.3751831-.5378418-.2723999-.8631592l.9974365.753479c.2609863.1970825.5806885.2966309.9046631.2833252.0509033-.0021362.0891113-.0469971.0834351-.0980225-.041687-.3718872-.2338257-.711792-.5332031-.9379883l-.7908936-.6074829c-.3929443-.3018188-.612793-.7792969-.5877075-1.2763062l.0557861-1.104187c.012146-.2387085.1443481-.4314575.326416-.5373535.1820068-.1057739.4138794-.1247559.6253052-.0159912l.9772949.50354c.4398804.2265625.7406006.6571045.8037109,1.1506958l.1268921.9935913c.0447998.3742065.2410889.7116699.539917.93396.0411377.0304565.0986938.0195312.1260376-.0238647.1733398-.2758789.2477417-.6044922.2087402-.930481l-.1491089-1.2469482c.3309937.0731201.5673218.3457031.6060791.6693115l.0028076.0239258c.0444336.3717651.2385254.7072754.5343018.9295654.0422363.0317993.1022949.0187378.1279297-.027771.159668-.2894897.2764893-.5737915.2096558-.8630371l.6100464.3135376c.3856812.1983032.8171997.286499,1.2478027.2561646.059082-.0041504.0951538-.0668945.0690918-.1205444-.189209-.3908081-.4807129-.7230225-.8441162-.9603271Z"/>
</svg>