<?xml version="1.0" encoding="UTF-8"?>
<svg id="a" data-name="Artwork" xmlns="http://www.w3.org/2000/svg" viewBox="0 0 18 18">
  <defs>
    <style>
      .b {
        stroke-width: 0px;
	fill:#000000;
      }
    </style>
  </defs>
  <path class="b" d="m15,7c-.2432861,0-.4766235.0368652-.703125.0916138-.550293-.661499-1.3691406-1.0916138-2.296936-1.0916138-.3817139,0-.7437744.0783691-1.0797729.2084961-.3674927-1.829834-1.9821777-3.2084961-3.920166-3.2084961-2.2091064,0-4,1.7907715-4,4-1.6569214,0-3,1.3430786-3,3,0,1.1046143.8953857,2,2,2h3.4692383l.75-3h4.3666992c.8115234,0,1.5371094.4848633,1.8476562,1.2348633.2424316.5855103.1920776,1.2353516-.1149292,1.7651367h3.6813354c1.1045532,0,2-.8953857,2-2,0-1.6569214-1.3431396-3-3-3Z"/>
  <path class="b" d="m10.5858154,10h-3.5858154l-1,4h1l-1,4,5-4h-2l2.2929077-2.2929077c.6299438-.6299438.1837769-1.7070923-.7070923-1.7070923Z"/>
</svg>