<?xml version="1.0" encoding="UTF-8"?>
<svg id="a" data-name="Artwork" xmlns="http://www.w3.org/2000/svg" xmlns:xlink="http://www.w3.org/1999/xlink" viewBox="0 0 18 18">
  <defs>
    <style>
      .c {
        opacity: .3;
      }

      .c, .d, .e {
        stroke-width: 0px;
	fill:#000000;
      }

      .e {
        fill: url(#b);
      }
    </style>
    <linearGradient id="b" x1="8.7736816" y1="3.4719238" x2="18" y2="3.4719238" gradientUnits="userSpaceOnUse">
      <stop offset="0" stop-color="#000" stop-opacity=".3"/>
      <stop offset="1" stop-color="#000" stop-opacity=".8"/>
    </linearGradient>
  </defs>
  <path class="d" d="m15,7c-.2433472,0-.4766235.0368652-.703125.0916138-.550293-.661499-1.3692017-1.0916138-2.296936-1.0916138-.3817139,0-.7437744.0783691-1.0797729.2084961-.3674927-1.829834-1.9822388-3.2084961-3.920166-3.2084961-2.2091064,0-4,1.7907715-4,4-1.6569214,0-3,1.3430786-3,3,0,1.1046143.8953857,2,2,2h14c1.1045532,0,2-.8953857,2-2,0-1.6569214-1.3431396-3-3-3Z"/>
  <polygon class="d" points="14.4162607 13.9999819 13.874994 13.6874805 13.2081385 14.4975561 12.5412659 13.6875 12 14 12.3680928 14.9825567 11.3331191 15.1550327 11.3331198 15.780034 12.3680872 15.9525482 11.9999861 16.9350804 12.5412528 17.2475817 13.2081273 16.4375391 13.875 17.2475953 14.4162659 16.9350953 14.048173 15.9525385 15.0831277 15.7800295 15.083127 15.1550282 14.0481786 14.982547 14.4162607 13.9999819"/>
  <path class="e" d="m11.5917969,5.0219727c1.1132812-.1225586,2.2246094.2529297,3.0551758.9960938,1.142395-.1162109,2.1835327.2548218,2.9610596.9257812.2523804-.5975342.3919678-1.2543945.3919678-1.9438477,0-2.7614136-2.2385864-5-5-5-1.7785034,0-3.3399658.928772-4.2263184,2.3275757,1.2523804.4782104,2.2797241,1.4480591,2.8181152,2.694397Z"/>
  <path class="c" d="m5.5004883,18c-.0400391,0-.0810547-.0048828-.121582-.0151367-.2680664-.0668945-.4311523-.3383789-.3637695-.605957l1-4c.0668945-.2680664.3369141-.4335938.605957-.3637695.2680664.0668945.4311523.3383789.3637695.605957l-1,4c-.0566406.2275391-.2602539.3789062-.484375.3789062Z"/>
  <path class="c" d="m9.5004883,18c-.0400391,0-.0810547-.0048828-.121582-.0151367-.2680664-.0668945-.4311523-.3383789-.3637695-.605957l1-4c.0664062-.2680664.3378906-.4335938.605957-.3637695.2680664.0668945.4311523.3383789.3637695.605957l-1,4c-.0566406.2275391-.2602539.3789062-.484375.3789062Z"/>
  <path class="d" d="m3.5004883,18c-.0400391,0-.0810547-.0048828-.121582-.0151367-.2680664-.0668945-.4311523-.3383789-.3637695-.605957l1-4c.0664062-.2680664.3378906-.4335938.605957-.3637695.2680664.0668945.4311523.3383789.3637695.605957l-1,4c-.0566406.2275391-.2602539.3789062-.484375.3789062Z"/>
  <path class="d" d="m6.0004883,16c-.0400391,0-.0810547-.0048828-.121582-.0151367-.2680664-.0668945-.4311523-.3383789-.3637695-.605957l.5-2c.0664062-.2680664.3383789-.4335938.605957-.3637695.2680664.0668945.4311523.3383789.3637695.605957l-.5,2c-.0566406.2275391-.2602539.3789062-.484375.3789062Z"/>
  <path class="d" d="m7.5004883,18c-.0400391,0-.0810547-.0048828-.121582-.0151367-.2680664-.0668945-.4311523-.3383789-.3637695-.605957l1-4c.0664062-.2680664.3359375-.4335938.605957-.3637695.2680664.0668945.4311523.3383789.3637695.605957l-1,4c-.0566406.2275391-.2602539.3789062-.484375.3789062Z"/>
</svg>