<?xml version="1.0" encoding="UTF-8"?>
<svg id="a" data-name="Artwork" xmlns="http://www.w3.org/2000/svg" xmlns:xlink="http://www.w3.org/1999/xlink" viewBox="0 0 18 18">
  <defs>
    <style>
      .c, .d {
	fill:#000000;
        stroke-width: 0px;
      }

      .d {
        fill: url(#b);
      }
    </style>
    <linearGradient id="b" x1="8.7736816" y1="3.4719238" x2="18" y2="3.4719238" gradientUnits="userSpaceOnUse">
      <stop offset="0" stop-color="#000" stop-opacity=".3"/>
      <stop offset="1" stop-color="#000" stop-opacity=".8"/>
    </linearGradient>
  </defs>
  <path class="c" d="m15,7c-.2433472,0-.4766235.0368652-.703125.0916138-.550293-.661499-1.3692017-1.0916138-2.296936-1.0916138-.3817139,0-.7437744.0783691-1.0797729.2084961-.3674927-1.829834-1.9822388-3.2084961-3.920166-3.2084961-2.2091064,0-4,1.7907715-4,4-1.6569214,0-3,1.3430786-3,3,0,1.1046143.8953857,2,2,2h14c1.1045532,0,2-.8953857,2-2,0-1.6569214-1.3431396-3-3-3Z"/>
  <circle class="c" cx="9" cy="17" r="1"/>
  <circle class="c" cx="1" cy="14" r="1"/>
  <circle class="c" cx="17" cy="14" r="1"/>
  <rect class="c" x="8.5908203" y="13" width=".8183594" height="2"/>
  <path class="c" d="m11.5875244,18h.8323364c.3510742-1.690918.9921875-2.8565063,1.8604126-3.3691406.2678833-.1577759.5256348-.234436.7559204-.2719727-.0212402-.1168213-.0361938-.2359619-.0361938-.3588867,0-.163269.0249634-.3196411.0618896-.4715576-.3513794.0377808-.7589111.1434937-1.1776123.3861084-.7207031.418457-1.2973633,1.1303711-1.7231445,2.125l-.3897095-3.0395508h-.8249512l.6410522,5Z"/>
  <path class="c" d="m5.8388672,16.0395508c-.4257812-.9946289-1.0024414-1.706543-1.7231445-2.125-.4187622-.242981-.826416-.348877-1.1777954-.3865967.0369873.1520386.0620728.3085938.0620728.4720459,0,.1228027-.0150146.2418823-.0361938.3585815.2304077.0375366.4881592.1142578.7559204.2722778.8682251.5126343,1.5093384,1.6782227,1.8604126,3.3691406h.8323364l.6410522-5h-.8249512l-.3897095,3.0395508Z"/>
  <path class="d" d="m11.5917969,5.0219727c1.1132812-.1225586,2.2246094.2529297,3.0551758.9960938,1.142395-.1162109,2.1835327.2548218,2.9610596.9257812.2523804-.5975342.3919678-1.2543945.3919678-1.9438477,0-2.7614136-2.2385864-5-5-5-1.7785034,0-3.3399658.928772-4.2263184,2.3275757,1.2523804.4782104,2.2797241,1.4480591,2.8181152,2.694397Z"/>
</svg>