<svg id="Artwork" xmlns="http://www.w3.org/2000/svg" viewBox="0 0 18 18"><defs><style>.cls-1{fill:#f8d55f;}.cls-2{fill:#595959;}</style></defs><title>weather-unknown-day</title><path class="cls-1" d="M9,2.5a6.56992,6.56992,0,0,1,.79022.04791l-.10174-.9306a.69258.69258,0,0,0-1.377,0l-.10174.9306A6.56992,6.56992,0,0,1,9,2.5Z"/><path class="cls-1" d="M5.08972,3.80762a6.49672,6.49672,0,0,1,1.36786-.79145l-.55267-.754a.69257.69257,0,0,0-1.19245.68847Z"/><path class="cls-1" d="M2.26221,5.90485l.754.55267a6.49056,6.49056,0,0,1,.79138-1.36786l-.857-.37726A.69255.69255,0,0,0,2.26221,5.90485Z"/><path class="cls-1" d="M12.91034,3.80762l.37726-.857a.69257.69257,0,0,0-1.19245-.68847l-.55273.75409A6.49124,6.49124,0,0,1,12.91034,3.80762Z"/><path class="cls-1" d="M2.5,9a6.56992,6.56992,0,0,1,.04791-.79022l-.9306.10174a.69258.69258,0,0,0,0,1.377l.9306.10174A6.56992,6.56992,0,0,1,2.5,9Z"/><path class="cls-1" d="M14.98376,6.45758l.75409-.55273a.69257.69257,0,0,0-.68847-1.19245l-.857.37726A6.49124,6.49124,0,0,1,14.98376,6.45758Z"/><path class="cls-1" d="M16.38269,8.31152l-.9306-.10174a6.54084,6.54084,0,0,1,0,1.58044l.9306-.10174A.69258.69258,0,0,0,16.38269,8.31152Z"/><path class="cls-1" d="M12.91034,14.19238a6.49056,6.49056,0,0,1-1.36786.79138l.55267.754a.69255.69255,0,0,0,1.19245-.68841Z"/><path class="cls-1" d="M15.73785,12.09509l-.754-.55267a6.49672,6.49672,0,0,1-.79145,1.36786l.857.37726A.69257.69257,0,0,0,15.73785,12.09509Z"/><path class="cls-1" d="M3.01624,11.54242l-.754.55267a.69255.69255,0,0,0,.68841,1.19245l.857-.37726A6.49341,6.49341,0,0,1,3.01624,11.54242Z"/><path class="cls-1" d="M9,15.5a6.56992,6.56992,0,0,1-.79022-.04791l.10174.9306a.69258.69258,0,0,0,1.377,0l.10174-.9306A6.56992,6.56992,0,0,1,9,15.5Z"/><path class="cls-1" d="M5.08972,14.19238l-.37726.857a.69255.69255,0,0,0,1.19245.68841l.55267-.754A6.49341,6.49341,0,0,1,5.08972,14.19238Z"/><path class="cls-1" d="M9,3a6,6,0,1,0,6,6A6,6,0,0,0,9,3Z"/><path class="cls-2" d="M8.98181,13.29346a.70261.70261,0,1,1,.70264-.70264A.70892.70892,0,0,1,8.98181,13.29346Zm.166-3.44928a.85187.85187,0,0,0,.34509.62634l-.77918.33191a1.31992,1.31992,0,0,1-.49823-1.03449c0-1.6228,2.31226-1.76348,2.31226-3.11743,0-.63885-.49817-1.18835-1.50745-1.18835A2.37756,2.37756,0,0,0,6.989,6.50989L6.35016,5.8197A3.39167,3.39167,0,0,1,9.1225,4.517c1.55835,0,2.50384.88141,2.50384,1.98035C11.62634,8.42645,9.14777,8.592,9.14777,9.84418Z"/></svg>