<svg id="Artwork" xmlns="http://www.w3.org/2000/svg" xmlns:xlink="http://www.w3.org/1999/xlink" viewBox="0 0 18 18"><defs><style>.cls-1{fill:url(#linear-gradient);}.cls-2{fill:#c8cbcc;}.cls-3{fill:#36fff3;}</style><linearGradient id="linear-gradient" x1="8" y1="5" x2="18" y2="5" gradientUnits="userSpaceOnUse"><stop offset="0" stop-color="#595959"/><stop offset="1" stop-color="#b3b3b3"/></linearGradient></defs><title>weather-storm-night</title><circle class="cls-1" cx="13" cy="5" r="5"/><path class="cls-2" d="M15,7a2.97867,2.97867,0,0,0-.70312.09161,2.94443,2.94443,0,0,0-3.37671-.88311A3.99959,3.99959,0,0,0,3,7a2.99992,2.99992,0,0,0-3,3,2,2,0,0,0,2,2H16a2,2,0,0,0,2-2A3,3,0,0,0,15,7Z"/><path class="cls-3" d="M10.58582,10H7L6,14H7L6,18l5-4H9l2.29291-2.29291A1,1,0,0,0,10.58582,10Z"/></svg>