<svg xmlns="http://www.w3.org/2000/svg" viewBox="0 0 1024 1024">
  <defs>
    <linearGradient id="bg" x1="0" y1="0" x2="0" y2="1">
      <stop offset="0%"  stop-color="#8FCBE8"/>
      <stop offset="45%" stop-color="#F7C36B"/>
      <stop offset="100%" stop-color="#E56A3F"/>
    </linearGradient>
    <!-- soft inner highlight near the top for subtle depth -->
    <radialGradient id="sheen" cx="50%" cy="18%" r="65%">
      <stop offset="0%"  stop-color="#FFFFFF" stop-opacity="0.28"/>
      <stop offset="60%" stop-color="#FFFFFF" stop-opacity="0.05"/>
      <stop offset="100%" stop-color="#FFFFFF" stop-opacity="0"/>
    </radialGradient>
  </defs>

  <!-- macOS icon safe shape: 824x824 centered in 1024 canvas; squircle-approximated rounded rect -->
  <rect x="100" y="100" width="824" height="824" rx="184" ry="184" fill="url(#bg)"/>
  <rect x="100" y="100" width="824" height="824" rx="184" ry="184" fill="url(#sheen)"/>

  <!-- Glyph, white, centered in squircle. Content bounds of the master
       glyph are roughly (257,257)–(775,720) inside its 1024x1024 viewBox,
       so we scale up and translate so the mark fills ~75% of the
       squircle's 824x824 safe area. -->
  <g transform="translate(-102 -69) scale(1.19)" fill="#FFFFFF" fill-rule="evenodd">
    <path d="M511.85 257.95 C494.75 258.08 475.24 268.91 460.73 279.84 C446.22 290.78 435.31 307.99 424.77 323.58 C414.24 339.18 406.12 356.55 397.53 373.41 C388.94 390.28 381.21 407.60 373.23 424.77 C365.24 441.94 357.45 459.20 349.62 476.45 C341.79 493.70 334.04 510.97 326.26 528.24 C318.48 545.51 310.73 562.79 302.96 580.07 C295.19 597.34 287.18 614.51 279.63 631.87 C272.08 649.24 258.22 669.53 257.66 684.25 C257.10 698.97 264.74 718.44 276.28 720.19 C287.82 721.94 310.59 704.26 326.90 694.77 C343.22 685.28 358.46 673.83 374.17 663.25 C389.89 652.68 405.26 641.58 421.18 631.34 C437.11 621.11 453.08 610.82 469.72 601.83 C486.35 592.85 503.38 584.20 520.99 577.43 C538.60 570.66 556.88 564.50 575.36 561.23 C593.85 557.96 613.41 555.84 631.89 557.82 C650.38 559.80 672.24 566.04 686.27 573.11 C700.29 580.18 720.00 598.86 716.04 600.23 C712.09 601.61 680.88 585.13 662.55 581.36 C644.22 577.60 620.67 575.62 606.06 577.65 C591.46 579.68 570.91 588.68 574.92 593.53 C578.92 598.38 612.55 600.16 630.10 606.77 C647.65 613.38 664.57 622.74 680.20 633.20 C695.83 643.65 709.34 657.39 723.85 669.49 C738.37 681.60 759.80 707.61 767.31 705.80 C774.81 704.00 772.13 675.31 768.89 658.67 C765.66 642.03 756.75 622.48 747.88 605.94 C739.00 589.40 729.02 572.08 715.65 559.44 C702.28 546.81 685.02 535.94 667.65 530.12 C650.28 524.31 630.10 523.79 611.43 524.56 C592.76 525.34 573.80 529.74 555.64 534.77 C537.49 539.80 519.83 547.18 502.51 554.74 C485.18 562.30 464.13 579.42 451.68 580.13 C439.23 580.84 429.05 571.55 427.80 559.01 C426.55 546.47 447.58 507.47 444.19 504.89 C440.81 502.31 419.47 529.68 407.47 543.54 C395.47 557.41 384.47 573.67 372.19 588.07 C359.92 602.47 344.97 620.37 333.81 629.94 C322.64 639.50 304.25 650.42 305.20 645.46 C306.15 640.51 328.22 615.38 339.51 600.19 C350.81 584.99 362.14 569.80 372.98 554.28 C383.83 538.76 394.12 522.85 404.57 507.05 C415.02 491.26 425.00 475.14 435.67 459.50 C446.34 443.86 456.64 427.82 468.60 413.21 C480.56 398.61 492.58 382.98 507.42 371.88 C522.26 360.78 542.63 354.64 557.66 346.61 C572.69 338.59 596.68 335.00 597.62 323.74 C598.56 312.49 577.60 290.04 563.30 279.07 C549.01 268.11 528.94 257.82 511.85 257.95 Z"/>
    <path d="M570.00 360.50 C566.61 360.85 563.20 361.50 559.94 362.45 C556.67 363.40 553.44 364.68 550.40 366.20 C547.37 367.73 544.52 369.70 541.70 371.63 C538.88 373.55 536.16 375.64 533.47 377.76 C530.78 379.87 528.10 382.01 525.58 384.32 C523.07 386.63 520.56 389.01 518.38 391.62 C516.20 394.23 513.24 397.13 512.48 399.99 C511.72 402.85 511.93 406.99 513.83 408.78 C515.73 410.56 520.56 409.95 523.89 410.70 C527.21 411.46 530.58 412.19 533.80 413.31 C537.02 414.42 540.22 415.76 543.21 417.38 C546.20 419.01 549.06 420.96 551.73 423.07 C554.41 425.18 556.84 427.63 559.25 430.05 C561.66 432.47 563.96 435.02 566.20 437.60 C568.44 440.18 570.62 442.82 572.70 445.54 C574.78 448.25 576.76 451.05 578.67 453.88 C580.59 456.71 582.39 459.62 584.21 462.52 C586.02 465.43 587.80 468.34 589.54 471.29 C591.28 474.24 592.99 477.20 594.63 480.20 C596.27 483.20 597.78 486.28 599.40 489.29 C601.02 492.30 602.33 495.59 604.37 498.26 C606.41 500.93 608.78 503.82 611.65 505.32 C614.53 506.81 618.27 506.98 621.64 507.24 C625.02 507.50 628.48 507.06 631.90 506.89 C635.31 506.71 638.72 506.38 642.14 506.22 C645.55 506.06 648.98 505.92 652.39 505.93 C655.81 505.93 659.24 505.99 662.65 506.24 C666.06 506.50 669.46 506.91 672.84 507.45 C676.21 508.00 679.59 509.36 682.89 509.51 C686.19 509.66 691.12 510.18 692.63 508.35 C694.14 506.51 692.78 501.72 691.96 498.52 C691.14 495.33 689.19 492.27 687.73 489.18 C686.26 486.09 684.74 483.02 683.19 479.97 C681.64 476.92 680.03 473.90 678.44 470.88 C676.84 467.85 675.23 464.83 673.62 461.82 C672.00 458.80 670.37 455.79 668.75 452.78 C667.12 449.77 665.53 446.74 663.87 443.75 C662.22 440.76 660.51 437.80 658.81 434.83 C657.11 431.86 655.40 428.89 653.68 425.94 C651.95 422.99 650.25 420.02 648.45 417.11 C646.65 414.20 644.78 411.33 642.88 408.49 C640.98 405.65 639.03 402.83 637.02 400.06 C635.01 397.29 632.96 394.55 630.84 391.87 C628.72 389.19 626.58 386.50 624.28 383.98 C621.98 381.45 619.60 378.97 617.04 376.72 C614.48 374.46 611.76 372.34 608.92 370.45 C606.09 368.55 603.12 366.77 600.03 365.35 C596.94 363.92 593.68 362.73 590.38 361.90 C587.08 361.07 583.65 360.57 580.25 360.34 C576.85 360.11 573.39 360.15 570.00 360.50 Z"/>
  </g>
</svg>
