<?xml version="1.0" encoding="UTF-8"?>
<svg xmlns="http://www.w3.org/2000/svg" viewBox="0 0 122 52">
<defs><style>
.cls-2 {
	stroke-width:0px;
	fill:#b2b2b2;
}
</style></defs>
<path class="cls-2" d="m105,23c1.65422,0,3,1.34583,3,3s-1.34578,3-3,3-3-1.34583-3-3,1.34578-3,3-3m0-6c-4.97058,0-9,4.02942-9,9s4.02942,9,9,9,9-4.02942,9-9-4.02942-9-9-9h0Z"/><path class="cls-2" d="m74,26c0-5.13096-4.29364-9.25904-9.48397-8.98728-4.86676.25482-8.51605,4.62306-8.51604,9.49649v8.4908h3.00001c1.65685,0,3-1.34315,3-3v-6c0-1.65417,1.34583-3,3-3s3,1.34583,3,3v9h3c1.65685,0,3-1.34315,3-3v-6Z"/><path class="cls-2" d="m17,17c-1.05231,0-2.0614.18237-3,.51416v-6.51416c0-1.65692-1.34308-3-3-3s-3,1.34308-3,3v15c0,4.97058,4.02942,9,9,9s9-4.02942,9-9-4.02942-9-9-9Zm0,12c-1.65417,0-3-1.34583-3-3s1.34583-3,3-3,3,1.34583,3,3-1.34583,3-3,3Z"/><path class="cls-2" d="m28.00001,35c0,1.64339-1.31902,3.01948-2.96218,3.00023-1.07302-.01257-2.11606.45194-2.61991,1.3994-1.22059,2.29525.41177,4.60037,2.58208,4.60037.05219,0,.104-.00128.15546-.00385,4.89862-.0835,8.84454-4.07776,8.84454-8.99615v-15c0-1.65685-1.34315-3-3-3h0c-1.65685,0-2.99999,1.34314-2.99999,2.99999v15.00001Z"/><path class="cls-2" d="m85,17c-4.97058,0-9,4.02942-9,9s4.02942,9,9,9c1.05231,0,2.0614-.18237,3-.51416v.51416c0,1.65417-1.34583,3-3,3-1.65674,0-3,1.34308-3,3,0,1.65674,1.34326,3,3,3,.05219,0,.104-.00128.15546-.00385,4.89862-.0835,8.84454-4.07776,8.84454-8.99615v-9c0-4.97058-4.02942-9-9-9Zm0,12c-1.65417,0-3-1.34583-3-3s1.34583-3,3-3,3,1.34583,3,3-1.34583,3-3,3Z"/><path class="cls-2" d="m45,17c-4.97058,0-9,4.02942-9,9s4.02942,9,9,9c1.3894,0,2.70502-.31531,3.87982-.87762.54272.54218,1.29236.87762,2.12018.87762h3v-9c0-4.97058-4.02942-9-9-9Zm0,12c-1.65417,0-3-1.34583-3-3s1.34583-3,3-3,3,1.34583,3,3-1.34583,3-3,3Z"/><path class="cls-2" d="m31.52641,7.16251l1.17064,2.14044,2.14044,1.17064c.41613.22759.41613.82524,0,1.05283l-2.14044,1.17064-1.17064,2.14044c-.22759.41613-.82524.41613-1.05283,0l-1.17064-2.14044-2.14044-1.17064c-.41613-.22759-.41613-.82524,0-1.05283l2.14044-1.17064,1.17064-2.14044c.22759-.41613.82524-.41613,1.05283,0Z"/></svg>